<svg preserveAspectRatio="none" width="100%" height="100%" overflow="visible" style="display: block;" viewBox="0 0 28 28" fill="none" xmlns="http://www.w3.org/2000/svg">
<g id="_&#229;&#155;&#190;&#229;&#177;&#130;_1">
<g id="Group">
<g id="Vector">
<path d="M5.488 12.488V7.966C5.488 6.594 6.608 5.474 7.98 5.474H20.02C21.392 5.474 22.512 6.594 22.512 7.966V13.986C22.512 14.504 22.932 14.924 23.45 14.924C23.968 14.924 24.388 14.504 24.388 13.986V7.966C24.388 5.558 22.428 3.584 20.006 3.584H7.98C5.572 3.584 3.598 5.544 3.598 7.966V20.006C3.598 22.414 5.558 24.388 7.98 24.388H14.616C15.134 24.388 15.554 23.968 15.554 23.45C15.554 17.696 11.116 12.978 5.488 12.488ZM7.98 22.512C6.608 22.512 5.488 21.392 5.488 20.02V14.378C9.758 14.826 13.174 18.228 13.608 22.498H7.966L7.98 22.512Z" fill="var(--fill-0, #0A0708)"/>
<path d="M5.488 12.488V7.966C5.488 6.594 6.608 5.474 7.98 5.474H20.02C21.392 5.474 22.512 6.594 22.512 7.966V13.986C22.512 14.504 22.932 14.924 23.45 14.924C23.968 14.924 24.388 14.504 24.388 13.986V7.966C24.388 5.558 22.428 3.584 20.006 3.584H7.98C5.572 3.584 3.598 5.544 3.598 7.966V20.006C3.598 22.414 5.558 24.388 7.98 24.388H14.616C15.134 24.388 15.554 23.968 15.554 23.45C15.554 17.696 11.116 12.978 5.488 12.488ZM7.98 22.512C6.608 22.512 5.488 21.392 5.488 20.02V14.378C9.758 14.826 13.174 18.228 13.608 22.498H7.966L7.98 22.512Z" fill="var(--fill-1, black)" fill-opacity="0.2"/>
</g>
<g id="Vector_2">
<path d="M20.594 10.752C20.594 8.778 18.984 7.168 17.01 7.168C15.036 7.168 13.426 8.778 13.426 10.752C13.426 12.726 15.036 14.336 17.01 14.336C18.984 14.336 20.594 12.726 20.594 10.752ZM17.01 12.446C16.072 12.446 15.316 11.69 15.316 10.752C15.316 9.814 16.072 9.058 17.01 9.058C17.948 9.058 18.704 9.814 18.704 10.752C18.704 11.69 17.948 12.446 17.01 12.446Z" fill="var(--fill-0, #0A0708)"/>
<path d="M20.594 10.752C20.594 8.778 18.984 7.168 17.01 7.168C15.036 7.168 13.426 8.778 13.426 10.752C13.426 12.726 15.036 14.336 17.01 14.336C18.984 14.336 20.594 12.726 20.594 10.752ZM17.01 12.446C16.072 12.446 15.316 11.69 15.316 10.752C15.316 9.814 16.072 9.058 17.01 9.058C17.948 9.058 18.704 9.814 18.704 10.752C18.704 11.69 17.948 12.446 17.01 12.446Z" fill="var(--fill-1, black)" fill-opacity="0.2"/>
</g>
<g id="Vector_3">
<path d="M24.15 20.202H22.036V18.088C22.036 17.57 21.616 17.15 21.098 17.15C20.58 17.15 20.16 17.57 20.16 18.088V20.202H18.046C17.528 20.202 17.108 20.622 17.108 21.14C17.108 21.658 17.528 22.078 18.046 22.078H20.16V24.192C20.16 24.71 20.58 25.13 21.098 25.13C21.616 25.13 22.036 24.71 22.036 24.192V22.078H24.15C24.668 22.078 25.088 21.658 25.088 21.14C25.088 20.622 24.668 20.202 24.15 20.202Z" fill="var(--fill-0, #0A0708)"/>
<path d="M24.15 20.202H22.036V18.088C22.036 17.57 21.616 17.15 21.098 17.15C20.58 17.15 20.16 17.57 20.16 18.088V20.202H18.046C17.528 20.202 17.108 20.622 17.108 21.14C17.108 21.658 17.528 22.078 18.046 22.078H20.16V24.192C20.16 24.71 20.58 25.13 21.098 25.13C21.616 25.13 22.036 24.71 22.036 24.192V22.078H24.15C24.668 22.078 25.088 21.658 25.088 21.14C25.088 20.622 24.668 20.202 24.15 20.202Z" fill="var(--fill-1, black)" fill-opacity="0.2"/>
</g>
</g>
</g>
</svg>
