<svg xmlns="http://www.w3.org/2000/svg" width="16" height="16" viewBox="0 0 16 16" fill="none">
  <path d="M8.76002 7.99978L12.272 4.48778C12.48 4.27978 12.48 3.93578 12.272 3.72778C12.064 3.51978 11.72 3.51978 11.512 3.72778L8.00002 7.23978L4.48802 3.72778C4.28002 3.51978 3.93602 3.51978 3.72802 3.72778C3.52002 3.93578 3.52002 4.27978 3.72802 4.48778L7.24002 7.99978L3.72802 11.5118C3.52002 11.7198 3.52002 12.0638 3.72802 12.2718C3.83202 12.3758 3.96802 12.4318 4.11202 12.4318C4.25602 12.4318 4.39202 12.3758 4.49602 12.2718L8.00802 8.75978L11.52 12.2718C11.624 12.3758 11.76 12.4318 11.904 12.4318C12.048 12.4318 12.184 12.3758 12.288 12.2718C12.496 12.0638 12.496 11.7198 12.288 11.5118L8.77602 7.99978H8.76002Z" fill="#EC2E2E"/>
</svg>