<svg xmlns="http://www.w3.org/2000/svg" width="16" height="16" viewBox="0 0 16 16" fill="none">
  <path d="M3.04796 6.88785H12.952C13.168 6.88785 13.368 6.75985 13.448 6.55185C13.528 6.34385 13.488 6.11985 13.328 5.95985L10.968 3.59985C10.76 3.39185 10.416 3.39185 10.2 3.59985C9.99196 3.80785 9.99196 4.15185 10.2 4.35985L11.64 5.79985H3.04796C2.75196 5.79985 2.51196 6.03985 2.51196 6.33585C2.51196 6.63185 2.75196 6.87185 3.04796 6.87185V6.88785Z" fill="#EC2E2E"/>
  <path d="M12.952 9.11182H3.04796C2.83196 9.11182 2.63196 9.23982 2.55196 9.44782C2.47196 9.65582 2.51196 9.87982 2.67196 10.0398L5.03196 12.3998C5.13596 12.5038 5.27196 12.5598 5.41596 12.5598C5.55996 12.5598 5.69596 12.5038 5.79996 12.3998C6.00796 12.1918 6.00796 11.8478 5.79996 11.6398L4.36796 10.2078H12.968C13.264 10.2078 13.504 9.96782 13.504 9.67182C13.504 9.37582 13.264 9.13582 12.968 9.13582L12.952 9.11182Z" fill="#EC2E2E"/>
</svg>