<svg preserveAspectRatio="none" width="100%" height="100%" overflow="visible" style="display: block;" viewBox="0 0 113.494 55.9839" fill="none" xmlns="http://www.w3.org/2000/svg">
<g id="Group">
<g id="Group_2" filter="url(#filter0_n_0_17)">
<path id="Vector" d="M31.1232 42.3515C30.5429 41.2513 30.4801 41.3323 29.8528 40.6042C27.5944 37.9346 24.0342 37.5139 24.0342 37.5139C24.0342 37.5139 23.7519 37.2227 25.5398 30.1036C27.2964 23.0169 29.7901 16.626 25.6182 15.1052C21.4307 13.5842 18.9684 19.053 17.8392 23.0979C16.6943 27.1266 15.6592 34.278 15.6592 34.278C15.6592 34.278 14.1693 26.5926 13.981 20.946C13.7928 15.3317 12.2716 14.6359 9.85623 14.5712C7.45669 14.5065 5.88833 16.3671 5.3551 21.6094C4.83754 26.8515 6.86072 37.9346 6.86072 37.9346C6.86072 37.9346 -2.73762 37.5463 0.838233 53.4669V53.4993C0.979384 54.3406 1.1519 55.1496 1.44989 55.9424H31.8446C33.209 51.315 32.2681 44.552 31.0918 42.3354L31.1232 42.3515Z" fill="url(#paint0_linear_0_17)"/>
<path id="Vector_2" d="M9.8441 15.0297C11.024 15.0613 11.8225 15.2478 12.3939 15.9633C12.9996 16.722 13.4278 18.1647 13.5215 20.9612C13.6166 23.8114 14.0397 27.1652 14.4365 29.7975C14.6351 31.1157 14.8275 32.2569 14.9706 33.0685C15.0421 33.4742 15.1017 33.7977 15.143 34.0201C15.1636 34.131 15.1795 34.217 15.1906 34.2752C15.196 34.304 15.2003 34.3265 15.2031 34.3415C15.2046 34.3489 15.206 34.3555 15.2067 34.3594C15.2071 34.3609 15.2074 34.362 15.2076 34.3629V34.3648L16.1144 34.3432C16.1146 34.3425 16.1151 34.3403 16.1153 34.3388C16.1158 34.3355 16.1161 34.3302 16.1171 34.3235C16.1191 34.3101 16.1222 34.2899 16.126 34.2636C16.1339 34.2107 16.145 34.132 16.1602 34.0308C16.1906 33.8284 16.2358 33.5342 16.2931 33.1688C16.4077 32.4374 16.5721 31.4197 16.7725 30.2774C17.1741 27.9874 17.7163 25.2122 18.2818 23.2224V23.2206C18.8413 21.2162 19.7208 18.9042 20.9482 17.291C21.56 16.4869 22.2381 15.884 22.9782 15.5641C23.6594 15.2697 24.4201 15.2025 25.2864 15.4764L25.4606 15.5354C26.3711 15.8675 26.8979 16.4479 27.179 17.2453C27.4698 18.0707 27.5037 19.1511 27.3459 20.4625C27.029 23.0992 25.9832 26.4036 25.0934 29.9936C24.1987 33.556 23.8184 35.4238 23.6623 36.4067C23.5846 36.8959 23.56 37.1803 23.5581 37.3519C23.5572 37.437 23.562 37.5102 23.5743 37.5739C23.5806 37.6067 23.5903 37.646 23.6075 37.6868C23.6163 37.7076 23.6283 37.7306 23.6434 37.7548C23.6511 37.7671 23.6595 37.7804 23.6694 37.7933C23.6744 37.7997 23.68 37.8065 23.6856 37.813C23.6884 37.8162 23.6917 37.8196 23.6946 37.8228C23.6961 37.8245 23.6984 37.8266 23.699 37.8273C23.7014 37.8298 23.7039 37.8321 24.034 37.514L23.7036 37.8327L23.8176 37.95L23.9801 37.9688L23.9855 37.9697C23.9907 37.9703 23.999 37.9716 24.0106 37.9732C24.0338 37.9765 24.0695 37.9816 24.1165 37.9894C24.2109 38.0049 24.3511 38.0304 24.5268 38.069C24.8788 38.1464 25.3727 38.2767 25.9346 38.487C27.0631 38.9095 28.4403 39.6451 29.5016 40.8996L29.5043 40.9032C29.6665 41.0914 29.7926 41.2281 29.8958 41.34C29.9999 41.4531 30.0744 41.534 30.1462 41.6238C30.2081 41.7011 30.2703 41.7892 30.3464 41.9102L30.6859 42.5494C31.2297 43.5744 31.7522 45.7445 31.9625 48.2723C32.1615 50.666 32.072 53.3043 31.4939 55.4839H1.77553C1.55857 54.8351 1.41765 54.1666 1.2979 53.4581V53.4161L1.28713 53.3668C-0.484674 45.4782 1.04115 41.7921 2.82866 40.059C3.73305 39.1822 4.74223 38.7648 5.52927 38.5667C5.92231 38.4679 6.25743 38.4244 6.49171 38.4056C6.60871 38.3962 6.70079 38.3931 6.76106 38.3922H6.84186L7.41556 38.4154L7.31321 37.8523L7.31231 37.8506C7.31209 37.8494 7.31184 37.8476 7.31141 37.8452C7.31047 37.8401 7.3088 37.8314 7.30692 37.8211C7.30317 37.8003 7.29798 37.7694 7.29076 37.7289C7.27619 37.6471 7.25494 37.5258 7.22792 37.3699C7.17387 37.058 7.09664 36.6062 7.00616 36.0477C6.82514 34.9303 6.58936 33.386 6.36961 31.6792C5.92806 28.2496 5.55998 24.2166 5.81297 21.654L5.81207 21.6532C6.07632 19.0575 6.59278 17.3749 7.28628 16.3582C7.95414 15.379 8.79591 15.0014 9.8441 15.0297Z" stroke="var(--stroke-0, #EE31EB)"/>
</g>
<path id="Vector_3" d="M75.0663 0.5C75.0563 0.565693 75.0455 0.637513 75.0339 0.714844C74.9614 1.20064 74.8576 1.91392 74.7349 2.82479C74.4895 4.64671 74.1657 7.26033 73.8524 10.4302C73.2651 16.3732 72.7137 24.277 72.7831 32.5869L72.8056 34.2538C72.9312 41.3503 73.5435 48.6715 74.9917 55.2583C74.999 55.3127 75.0073 55.3663 75.016 55.4194H32.2426C31.7962 53.7704 30.1803 47.1364 29.5016 37.2338L29.4334 36.1757C28.8757 26.6329 29.2259 14.2538 32.2776 0.5H75.0663Z" fill="url(#paint1_linear_0_17)" stroke="var(--stroke-0, #F74D4D)"/>
<path id="Vector_4" d="M35.2163 4.81478H69.7514C69.7514 4.81478 67.493 16.7715 68.387 33.1453H33.3656C33.3656 33.1453 31.5934 18.9881 35.2163 4.81478Z" fill="var(--fill-0, white)"/>
<path id="Vector_5" d="M52.3589 44.5679C52.3589 48.6937 56.1387 51.2501 60.7967 51.2501C65.4547 51.2501 69.2344 49.891 69.2344 44.5032C69.2344 40.0538 65.4547 36.3001 60.7967 36.3001C56.1387 36.3001 52.3589 40.4421 52.3589 44.5679Z" fill="var(--fill-0, white)"/>
<path id="Vector_6" d="M34.2753 44.5679C34.2753 48.6937 38.055 51.2501 42.7131 51.2501C47.3711 51.2501 51.1508 49.891 51.1508 44.5032C51.1508 40.0538 47.3711 36.3001 42.7131 36.3001C38.055 36.3001 34.2753 40.4421 34.2753 44.5679Z" fill="var(--fill-0, white)"/>
<path id="Vector_7" d="M55.4166 46.2182C56.7246 46.2182 57.7849 45.1243 57.7849 43.7751C57.7849 42.4258 56.7246 41.3319 55.4166 41.3319C54.1087 41.3319 53.0484 42.4258 53.0484 43.7751C53.0484 45.1243 54.1087 46.2182 55.4166 46.2182Z" fill="var(--fill-0, #22252A)"/>
<path id="Vector_8" d="M37.3339 45.5548C38.6418 45.5548 39.7021 44.461 39.7021 43.1117C39.7021 41.7625 38.6418 40.6686 37.3339 40.6686C36.0259 40.6686 34.9657 41.7625 34.9657 43.1117C34.9657 44.461 36.0259 45.5548 37.3339 45.5548Z" fill="var(--fill-0, #22252A)"/>
<g id="Vector_9">
<path d="M83.5379 29.9309C84.1495 29.931 84.7528 29.9627 85.3668 30.0553H85.3704L101.492 32.3533C108.773 33.3996 113.884 40.3261 112.864 47.8721V47.874C112.479 50.8138 111.208 53.4196 109.369 55.4194H76.5916C76.3056 55.2503 76.0143 55.046 75.7297 54.8223L75.7207 54.8152C71.8691 51.9368 69.6495 47.0196 70.3483 41.8144C70.7283 39.0075 71.8986 36.5173 73.6127 34.5455L73.6145 34.5438C76.0721 31.6798 79.6637 29.9309 83.5379 29.9309Z" fill="url(#paint2_linear_0_17)"/>
<path d="M75.7297 54.8223C76.0143 55.046 76.3056 55.2503 76.5916 55.4194H109.369C111.208 53.4196 112.479 50.8138 112.864 47.874V47.8721C113.884 40.3261 108.773 33.3996 101.492 32.3533L85.3704 30.0553H85.3668C84.7528 29.9627 84.1495 29.931 83.5379 29.9309C79.6637 29.9309 76.0721 31.6798 73.6145 34.5438L73.6127 34.5455C71.8986 36.5173 70.7283 39.0075 70.3483 41.8144C69.6495 47.0196 71.8691 51.9368 75.7207 54.8152L75.7297 54.8223ZM75.7297 54.8223L75.4451 55.1822" stroke="var(--stroke-0, #915AFF)"/>
</g>
<path id="Vector_10" d="M82.8629 43.7752C82.6747 43.7752 82.5023 43.7752 82.3141 43.7427C81.2633 43.5972 80.3379 43.0309 79.7106 42.1734C79.0676 41.2996 78.801 40.2318 78.9421 39.164C79.0205 38.5815 79.5381 38.177 80.0869 38.2741C80.6516 38.3549 81.028 38.8889 80.9653 39.4552C80.9025 39.9729 81.028 40.4907 81.3417 40.9113C81.6554 41.332 82.0944 41.6071 82.5963 41.6718C83.0982 41.7365 83.6001 41.6071 84.0079 41.2835C84.4156 40.9599 84.6822 40.5069 84.745 39.9891C84.8235 39.4066 85.341 39.0022 85.8899 39.0993C86.4545 39.1801 86.8309 39.7141 86.7682 40.2804C86.627 41.3644 86.0781 42.319 85.2469 42.9661C84.5568 43.5001 83.7256 43.7913 82.8787 43.7913L82.8629 43.7752Z" fill="var(--fill-0, white)"/>
<path id="Vector_11" d="M90.8621 44.9075C90.674 44.9075 90.5015 44.9075 90.3133 44.8752C89.2625 44.7295 88.3371 44.1633 87.7098 43.3058C87.0824 42.4482 86.8002 41.3642 86.9413 40.2963C87.0197 39.7139 87.5373 39.3094 88.0862 39.4064C88.6508 39.4874 89.0272 40.0213 88.9645 40.5876C88.9017 41.1053 89.0272 41.6231 89.3409 42.0438C89.6546 42.4644 90.0937 42.7394 90.5955 42.8042C91.0974 42.8689 91.5993 42.7394 92.007 42.4159C92.4152 42.0923 92.6818 41.6393 92.7443 41.1215C92.8225 40.5391 93.3401 40.1346 93.8889 40.2316C94.4534 40.3126 94.8304 40.8464 94.7678 41.4128C94.6263 42.4968 94.0774 43.4514 93.2463 44.0986C92.5559 44.6325 91.7248 44.9238 90.8779 44.9238L90.8621 44.9075Z" fill="var(--fill-0, white)"/>
<path id="Vector_12" d="M86.6898 50.0531C81.7966 50.0531 78.3932 46.8495 78.3461 46.801C77.9384 46.3965 77.9227 45.7331 78.2992 45.3124C78.6755 44.8918 79.3343 44.8594 79.742 45.264C79.9773 45.4905 85.7017 50.8135 92.7747 45.8788C93.2454 45.5552 93.8733 45.6846 94.1868 46.1538C94.5003 46.6392 94.3744 47.2864 93.9202 47.61C91.3321 49.4221 88.8698 50.0531 86.7055 50.0531H86.6898Z" fill="var(--fill-0, white)"/>
<path id="Vector_13" d="M4.73241 8.26289C4.43342 8.26289 4.19192 8.08065 4.15742 7.83127C4.05393 7.02558 3.72043 6.45007 3.15695 6.12396C2.19097 5.55806 0.834006 5.82662 0.788007 5.83621C0.477515 5.89377 0.167022 5.7403 0.0865242 5.49092C0.017526 5.26072 0.167023 5.02093 0.420017 4.9346C0.420017 4.9346 0.454515 4.92501 0.477515 4.91542C4.20342 4.1385 4.47941 1.41448 4.47941 0.714292C4.47941 0.647151 4.47941 0.589601 4.47941 0.52246C4.47941 0.263486 4.72091 0.0524708 5.0314 0.0428791C5.29589 0.0236959 5.60638 0.234711 5.62939 0.493685C5.62939 0.493685 5.62939 0.541643 5.62939 0.627968C5.70989 3.30403 7.86033 3.68769 7.88333 3.69729C8.13632 3.73565 8.33181 3.91789 8.34331 4.1385C8.35481 4.3591 8.19382 4.56053 7.95232 4.62767C5.46839 5.30868 5.27289 7.73535 5.26139 7.84086C5.23839 8.09025 4.9969 8.29167 4.69791 8.29167H4.6864L4.73241 8.26289ZM3.05345 5.01134C3.30644 5.08807 3.57093 5.19357 3.81243 5.33745C4.14593 5.52928 4.43342 5.77866 4.65191 6.06641C4.9854 5.395 5.54889 4.66604 6.49186 4.14809C6.03188 3.87952 5.51439 3.46709 5.12339 2.83404C4.74391 3.59178 4.11142 4.38788 3.04195 5.01134H3.05345Z" fill="var(--fill-0, #231815)"/>
<path id="Vector_14" d="M101.67 22.5085C101.402 22.5085 101.156 22.308 101.098 22.007C101.028 21.6685 101.238 21.33 101.554 21.2673C101.578 21.2673 102.466 21.004 103.003 19.3239C103.506 17.7692 103.085 15.9637 102.396 15.4497C102.22 15.3243 101.998 15.2365 101.635 15.55C101.46 15.7004 101.437 15.8133 101.437 15.9136C101.437 16.4026 102.056 17.1674 102.501 17.5435C102.746 17.7567 102.793 18.1578 102.594 18.4212C102.396 18.697 102.022 18.7346 101.776 18.5215C101.624 18.3835 100.279 17.1925 100.279 15.9136C100.279 15.387 100.49 14.9231 100.911 14.572C101.612 13.9577 102.408 13.9075 103.085 14.409C104.29 15.3118 104.77 17.7442 104.138 19.7252C103.366 22.1199 101.881 22.4709 101.811 22.4835C101.776 22.4835 101.729 22.496 101.694 22.496L101.67 22.5085Z" fill="var(--fill-0, #231815)"/>
<path id="Vector_15" d="M105.819 20.3985C105.551 20.3985 105.305 20.198 105.247 19.897C105.177 19.5585 105.387 19.22 105.703 19.1574C105.726 19.1574 106.615 18.894 107.152 17.214C107.655 15.6593 107.234 13.8538 106.545 13.3398C106.369 13.2144 106.147 13.1266 105.784 13.44C105.609 13.5906 105.586 13.7034 105.586 13.8037C105.586 14.2926 106.206 15.0574 106.65 15.4336C106.895 15.6467 106.942 16.048 106.743 16.3112C106.545 16.587 106.171 16.6247 105.925 16.4115C105.773 16.2736 104.428 15.0825 104.416 13.8037C104.416 13.2771 104.627 12.8131 105.048 12.4621C105.75 11.8478 106.545 11.7976 107.222 12.2992C108.427 13.2018 108.907 15.6342 108.275 17.6152C107.503 20.0099 106.018 20.361 105.948 20.3861C105.913 20.3861 105.866 20.3985 105.831 20.3985H105.819Z" fill="var(--fill-0, #231815)"/>
<path id="Vector_16" d="M11.4561 47.1569C11.4561 47.1569 11.4405 47.1569 11.4247 47.1569C10.8602 47.1569 10.421 46.6553 10.4367 46.0728C10.4367 45.7654 10.3583 44.1312 8.46055 43.7753C6.65694 43.4356 6.13939 45.2639 6.06097 45.6359C5.9355 46.2023 5.38658 46.5582 4.83766 46.4288C4.28873 46.2993 3.94369 45.7492 4.06916 45.1829C4.38283 43.7268 5.76298 41.138 8.82128 41.7044C11.7855 42.2544 12.5069 44.8432 12.4756 46.1214C12.4756 46.6876 12.005 47.1406 11.4561 47.1406V47.1569Z" fill="var(--fill-0, white)"/>
<path id="Vector_17" d="M14.3108 47.0432C14.3108 47.0432 14.2481 47.0432 14.2167 47.0432C13.6521 46.9947 13.2443 46.477 13.307 45.9107C13.4325 44.4383 14.499 41.704 17.6044 41.8495C20.6156 42.0113 21.6507 44.4869 21.7605 45.7651C21.8232 46.3475 21.3997 46.8653 20.8509 46.9138C20.3019 46.9785 19.7843 46.5417 19.7373 45.9754C19.7059 45.6679 19.4237 44.0662 17.4946 43.9529C15.6909 43.8559 15.3773 45.7326 15.3459 46.1048C15.2989 46.6388 14.844 47.0432 14.3265 47.0432H14.3108Z" fill="var(--fill-0, white)"/>
<path id="Vector_18" d="M13.2442 52.3018C11.8328 52.3018 10.829 52.0591 10.7349 52.043C10.1859 51.9135 9.8566 51.3472 9.98209 50.781C10.1076 50.2147 10.6564 49.8749 11.2054 50.0043C11.2525 50.0043 15.9105 51.1046 18.8904 48.0466C19.2824 47.6421 19.9411 47.6421 20.3332 48.0466C20.7253 48.4511 20.7253 49.1306 20.3332 49.5352C18.1062 51.8326 15.2517 52.3181 13.2442 52.3181V52.3018Z" fill="var(--fill-0, white)"/>
</g>
<defs>
<filter id="filter0_n_0_17" x="0" y="14.5282" width="32.5584" height="41.4556" filterUnits="userSpaceOnUse" color-interpolation-filters="sRGB">
<feFlood flood-opacity="0" result="BackgroundImageFix"/>
<feBlend mode="normal" in="SourceGraphic" in2="BackgroundImageFix" result="shape"/>
<feTurbulence type="fractalNoise" baseFrequency="10 10" stitchTiles="stitch" numOctaves="3" result="noise" seed="2760" />
<feColorMatrix in="noise" type="luminanceToAlpha" result="alphaNoise" />
<feComponentTransfer in="alphaNoise" result="coloredNoise1">
<feFuncA type="discrete" tableValues="1 1 1 1 1 1 1 1 1 1 1 1 1 1 1 1 1 1 1 1 1 1 1 1 1 1 1 1 1 1 1 1 1 1 1 1 1 1 1 1 1 1 1 1 1 1 1 1 1 1 1 0 0 0 0 0 0 0 0 0 0 0 0 0 0 0 0 0 0 0 0 0 0 0 0 0 0 0 0 0 0 0 0 0 0 0 0 0 0 0 0 0 0 0 0 0 0 0 0 0 "/>
</feComponentTransfer>
<feComposite operator="in" in2="shape" in="coloredNoise1" result="noise1Clipped" />
<feComponentTransfer in="alphaNoise" result="coloredNoise2">
<feFuncA type="discrete" tableValues="0 0 0 0 0 0 0 0 0 0 0 0 0 0 0 0 0 0 0 0 0 0 0 0 0 0 0 0 0 0 0 0 0 0 0 0 0 0 0 0 0 0 0 0 0 0 0 0 0 1 1 1 1 1 1 1 1 1 1 1 1 1 1 1 1 1 1 1 1 1 1 1 1 1 1 1 1 1 1 1 1 1 1 1 1 1 1 1 1 1 1 1 1 1 1 1 1 1 1 1 "/>
</feComponentTransfer>
<feComposite operator="in" in2="shape" in="coloredNoise2" result="noise2Clipped" />
<feFlood flood-color="rgba(255, 65, 233, 0.25)" result="color1Flood" />
<feComposite operator="in" in2="noise1Clipped" in="color1Flood" result="color1" />
<feFlood flood-color="rgba(255, 255, 255, 0.25)" result="color2Flood" />
<feComposite operator="in" in2="noise2Clipped" in="color2Flood" result="color2" />
<feMerge result="effect1_noise_0_17">
<feMergeNode in="shape" />
<feMergeNode in="color1" />
<feMergeNode in="color2" />
</feMerge>
</filter>
<linearGradient id="paint0_linear_0_17" x1="16.2794" y1="55.9424" x2="16.2794" y2="14.5696" gradientUnits="userSpaceOnUse">
<stop stop-color="#FF3DF5"/>
<stop offset="1" stop-color="#F066FF"/>
</linearGradient>
<linearGradient id="paint1_linear_0_17" x1="52.1779" y1="0.0416667" x2="52.1779" y2="55.8774" gradientUnits="userSpaceOnUse">
<stop stop-color="#FF6E75"/>
<stop offset="1" stop-color="#FF4A4D"/>
</linearGradient>
<linearGradient id="paint2_linear_0_17" x1="91.6076" y1="29.4725" x2="91.6076" y2="55.8777" gradientUnits="userSpaceOnUse">
<stop stop-color="#B283FF"/>
<stop offset="1" stop-color="#855DFF"/>
</linearGradient>
</defs>
</svg>
