<svg preserveAspectRatio="none" width="100%" height="100%" overflow="visible" style="display: block;" viewBox="0 0 14.846 14.846" fill="none" xmlns="http://www.w3.org/2000/svg">
<path id="Vector" d="M14.261 6.435C11.778 5.083 9.763 3.068 8.424 0.598C8.229 0.247 7.852 0.013 7.436 0C7.033 0 6.656 0.221 6.448 0.585C5.096 3.055 3.068 5.083 0.585 6.435C0.234 6.617 0 7.007 0 7.423C0 7.839 0.221 8.216 0.585 8.411C3.055 9.75 5.083 11.778 6.448 14.261C6.656 14.625 7.02 14.846 7.436 14.846C7.852 14.846 8.229 14.625 8.424 14.261C9.763 11.791 11.778 9.776 14.261 8.411C14.625 8.216 14.846 7.839 14.846 7.423C14.846 7.007 14.625 6.617 14.261 6.435ZM7.423 12.168C6.188 10.283 4.576 8.671 2.678 7.423C4.576 6.188 6.188 4.576 7.423 2.691C8.671 4.576 10.27 6.188 12.168 7.423C10.27 8.671 8.658 10.283 7.423 12.168Z" fill="url(#paint0_linear_0_45)"/>
<defs>
<linearGradient id="paint0_linear_0_45" x1="9.37303" y1="15.223" x2="6.77303" y2="0.922999" gradientUnits="userSpaceOnUse">
<stop stop-color="#FFC505"/>
<stop offset="1" stop-color="#FFF604"/>
</linearGradient>
</defs>
</svg>
