<svg width="176" height="188" viewBox="0 0 176 188" fill="none" xmlns="http://www.w3.org/2000/svg">
<path d="M61.7892 146.724C64.1329 143.9 67.106 146.617 68.2995 148.328C68.842 147.366 70.5779 145.697 73.182 146.724C75.7862 147.751 75.1351 150.361 74.4841 151.537C75.5692 151.323 77.7393 151.794 77.7393 155.388C77.7393 158.982 74.0501 157.955 72.2055 156.993C71.7715 158.597 70.2524 161.742 67.6483 161.485C65.0441 161.228 65.6952 157.955 66.3462 156.351C64.5016 157.1 60.6172 157.955 59.8359 155.388C59.0547 152.821 63.1997 152.393 65.3699 152.5C63.1998 151.751 59.4455 149.548 61.7892 146.724Z" stroke="#FF9F8A" stroke-width="2" stroke-linecap="round" stroke-linejoin="round"/>
<path d="M136.814 16.9431C145.153 21.5578 154.439 14.8205 158.039 10.875C152.635 23.3179 157.54 27.8235 159.255 32.6627C151.7 30.5089 140.484 36.6339 135.821 39.9657C140.831 30.2072 138.57 20.5513 136.814 16.9431Z" fill="#934FFF" stroke="#934FFF" stroke-width="2" stroke-linecap="round" stroke-linejoin="round"/>
<path d="M163.752 93.5017C166.876 95.9988 171.191 93.8675 172.959 92.4897C169.846 97.2547 171.557 99.4643 171.924 101.587C168.951 100.163 163.881 101.905 161.717 102.954C164.477 99.2712 164.224 95.118 163.752 93.5017Z" fill="#FF726E" stroke="#FF726E" stroke-width="2" stroke-linecap="round" stroke-linejoin="round"/>
<path d="M2.3843 176.269C6.58435 177.58 9.99987 174.805 11.1826 173.254C8.60663 177.478 11.4828 180.681 13.2429 181.754C9.54392 180.18 5.41861 183.327 3.81833 185.097C5.65487 181.899 3.62753 177.879 2.3843 176.269Z" fill="#3F79FF" stroke="#3F79FF" stroke-width="2" stroke-linecap="round" stroke-linejoin="round"/>
<path d="M77.7393 26V1" stroke="#FFA600" stroke-width="2" stroke-linecap="round" stroke-linejoin="round"/>
<path d="M96.2393 33.5L106.239 27M132.739 71.5L137.739 61M137.739 85.5L161.239 71.5M149.739 121.5L163.739 119" stroke="#FFA600" stroke-width="2" stroke-linecap="round" stroke-linejoin="round"/>
<path d="M67.2393 47.5C76.9059 45.5 99.8393 47.1 114.239 69.5C132.239 97.5 98.2393 96.5 99.7393 88.5C101.239 80.5 122.239 75.5 131.239 100C140.239 124.5 122.739 130 120.239 127C117.739 124 120.739 118.5 127.739 121C134.739 123.5 147.239 134.5 135.239 152.5" stroke="#995AFF" stroke-width="2" stroke-linecap="round" stroke-linejoin="round"/>
<path d="M53.2393 54L50.2393 59M46.2393 59.5L42.7393 57.5M48.2393 63L45.2393 68M52.2393 61.5L57.2393 65" stroke="#57CF2C" stroke-width="2" stroke-linecap="round" stroke-linejoin="round"/>
</svg>
