<svg width="24" height="24" viewBox="0 0 24 24" fill="none" xmlns="http://www.w3.org/2000/svg">
<path d="M22.5 18.6855V5.31525C22.5 3.21675 20.7833 1.5 18.6847 1.5H5.31525C3.21675 1.5 1.5 3.21675 1.5 5.31525V18.6855C1.5 20.763 3.183 22.467 5.25375 22.5H18.7463C20.8162 22.467 22.5 20.7638 22.5 18.6855Z" fill="#FF2442"/>
<path d="M16.4188 9H17.6V9.423C17.6 9.45675 17.6165 9.4725 17.6488 9.47175C18.3493 9.45075 19.055 9.47325 19.4165 10.1917C19.6318 10.6177 19.5875 11.2657 19.5755 11.7742C19.5748 11.8042 19.589 11.8207 19.6175 11.8237C19.7 11.8312 19.7803 11.8387 19.8583 11.8485C21.251 12.0157 20.9758 13.329 20.9803 14.361C20.9825 14.721 20.942 14.9842 20.8603 15.1522C20.6878 15.5002 20.3788 15.6997 19.9333 15.7492H19.0648L18.6208 14.7187C18.6186 14.7137 18.6176 14.7082 18.618 14.7027C18.6184 14.6972 18.6201 14.6919 18.623 14.6872C18.6259 14.6827 18.6299 14.6789 18.6346 14.6763C18.6393 14.6737 18.6446 14.6723 18.65 14.6722L19.592 14.6715C19.6445 14.6715 19.694 14.649 19.73 14.61C19.7664 14.5707 19.7863 14.5188 19.7855 14.4652C19.781 14.1502 19.7788 13.836 19.7803 13.5217C19.7803 13.239 19.6468 13.0942 19.3775 13.0867C19.073 13.0792 18.4963 13.0792 17.6465 13.0882C17.6165 13.0882 17.6015 13.1047 17.6015 13.137L17.597 15.7492H16.4173L16.4135 13.1257C16.4137 13.1196 16.4127 13.1134 16.4105 13.1077C16.4083 13.1019 16.405 13.0966 16.4007 13.0922C16.3965 13.0877 16.3913 13.0841 16.3857 13.0816C16.38 13.0792 16.3739 13.0778 16.3678 13.0777H15.2653C15.2516 13.0774 15.2386 13.0717 15.2291 13.0619C15.2196 13.052 15.2143 13.0389 15.2143 13.0252L15.2158 11.8837C15.2158 11.8455 15.2338 11.826 15.2698 11.826L16.3595 11.8282C16.3666 11.8282 16.3735 11.8267 16.38 11.8239C16.3864 11.821 16.3922 11.8169 16.397 11.8117C16.4068 11.8011 16.4121 11.7872 16.412 11.7727V10.7857C16.4124 10.7686 16.406 10.7519 16.3942 10.7394C16.3825 10.7269 16.3662 10.7196 16.349 10.719L15.6763 10.722C15.641 10.722 15.6238 10.7032 15.6238 10.6665L15.6215 9.519C15.6215 9.48525 15.6365 9.46875 15.6703 9.46875H16.367C16.397 9.46875 16.412 9.45375 16.412 9.4215L16.4195 9H16.4188ZM17.642 11.8297L18.3748 11.8282C18.3868 11.8282 18.398 11.823 18.4063 11.814C18.4146 11.8051 18.4192 11.7932 18.419 11.781L18.4153 10.8637C18.4153 10.7917 18.3628 10.7332 18.299 10.7332L17.711 10.7347C17.6953 10.735 17.6798 10.7386 17.6656 10.7453C17.6513 10.752 17.6387 10.7617 17.6285 10.7737C17.6062 10.7998 17.5942 10.8332 17.5948 10.8675L17.5985 11.7847C17.5985 11.8102 17.6188 11.8297 17.642 11.8297ZM10.0625 11.9122C9.77752 11.9175 9.26227 11.997 9.14978 11.6302C9.08152 11.4112 9.23602 11.106 9.32977 10.8922C9.59677 10.284 9.85852 9.6735 10.1158 9.06075C10.1263 9.036 10.1443 9.02325 10.1698 9.02325H11.297C11.3068 9.02325 11.315 9.0285 11.3195 9.03675C11.3221 9.0407 11.3237 9.0452 11.3243 9.04989C11.3248 9.05458 11.3242 9.05933 11.3225 9.06375L10.67 10.5885C10.655 10.6237 10.6588 10.6635 10.6783 10.6965C10.6877 10.7119 10.7009 10.7247 10.7167 10.7337C10.7324 10.7426 10.7502 10.7473 10.7683 10.7475H11.7343C11.7463 10.7475 11.7568 10.7535 11.7635 10.7632C11.7695 10.7737 11.771 10.7857 11.7658 10.797C11.4868 11.4472 11.2085 12.093 10.931 12.7342C10.9033 12.798 10.8913 12.8452 10.8958 12.8752C10.9055 12.9405 10.9423 12.9735 11.0053 12.9742L11.6165 12.978C11.6518 12.9787 11.663 12.996 11.6488 13.0305L11.2535 13.9605C11.248 13.9759 11.2378 13.9892 11.2244 13.9985C11.2109 14.0078 11.1949 14.0126 11.1785 14.0122C10.5575 14.0197 10.1233 14.0197 9.87578 14.0085C9.46628 13.9897 9.36578 13.6312 9.52478 13.2615L10.0865 11.9505C10.0882 11.9464 10.0888 11.9419 10.0884 11.9375C10.088 11.9331 10.0866 11.9288 10.0843 11.925C10.082 11.9211 10.0787 11.9178 10.0748 11.9156C10.0708 11.9133 10.0663 11.9122 10.0618 11.9122H10.0625ZM5.37878 15.7492H4.93627L4.50278 14.7315C4.50062 14.7266 4.4997 14.7212 4.50009 14.7158C4.50048 14.7105 4.50217 14.7053 4.50503 14.7007C4.50762 14.6963 4.51133 14.6925 4.5158 14.6899C4.52027 14.6873 4.52534 14.6858 4.53052 14.6857L5.14252 14.6842C5.16134 14.6839 5.17989 14.6798 5.19712 14.6722C5.21435 14.6646 5.22992 14.6538 5.24295 14.6402C5.25597 14.6266 5.26619 14.6106 5.27303 14.5931C5.27986 14.5755 5.28317 14.5568 5.28278 14.538L5.29928 9.14025C5.29908 9.13329 5.30026 9.12637 5.30276 9.11987C5.30527 9.11338 5.30903 9.10744 5.31385 9.10242C5.31866 9.09739 5.32443 9.09338 5.33081 9.0906C5.3372 9.08783 5.34407 9.08635 5.35103 9.08625H6.40402C6.45352 9.08625 6.47828 9.1125 6.47903 9.16425C6.48353 10.992 6.48353 12.7882 6.47903 14.5537C6.47602 15.2782 6.14003 15.7732 5.37878 15.7492Z" fill="white"/>
<path d="M15.2565 15.7495H11.262L11.7975 14.542C11.8028 14.528 11.8125 14.5161 11.825 14.5078C11.8375 14.4996 11.8523 14.4956 11.8672 14.4962L12.8452 14.4977C12.8797 14.4977 12.8977 14.4805 12.8977 14.4452V10.7815C12.8977 10.75 12.8827 10.7342 12.8527 10.7342L12.204 10.7335C12.1747 10.7335 12.1515 10.708 12.1515 10.6772V9.50199C12.1515 9.48399 12.165 9.46899 12.1822 9.46899H14.8267C14.8597 9.46899 14.8755 9.48624 14.8755 9.52074L14.877 10.6832C14.877 10.717 14.8605 10.7342 14.8275 10.7342H14.1735C14.1435 10.7342 14.1285 10.75 14.1285 10.7815V14.443C14.1285 14.4782 14.1457 14.4955 14.1787 14.4955L15.2152 14.4977C15.2437 14.4977 15.258 14.5127 15.258 14.5427L15.2565 15.7502V15.7495ZM20.0137 9.58299C20.8297 9.02199 21.4042 10.4522 20.5102 10.6975C20.3647 10.738 20.133 10.7402 19.8157 10.705C19.7872 10.702 19.7737 10.6862 19.7737 10.6562C19.7692 10.3187 19.7025 9.79674 20.0137 9.58374V9.58299ZM8.7495 13.7882L8.2095 15.046C8.16075 15.1585 8.1075 15.1607 8.04825 15.055C7.65075 14.3365 7.51575 13.75 7.43775 12.8567C7.37775 12.163 7.326 11.4692 7.281 10.774C7.2795 10.7425 7.29375 10.7267 7.32375 10.7267L8.418 10.7275C8.44875 10.7275 8.466 10.744 8.46825 10.7755C8.5245 11.584 8.58375 12.3902 8.64525 13.1942C8.661 13.4012 8.69625 13.573 8.75025 13.7095C8.75561 13.7219 8.75831 13.7354 8.75818 13.7489C8.75805 13.7625 8.75509 13.7759 8.7495 13.7882ZM3 13.7417V13.69C3.05142 13.6202 3.0849 13.5388 3.0975 13.453C3.1785 12.5605 3.2445 11.6687 3.29625 10.7762C3.2985 10.7485 3.312 10.7342 3.33825 10.7342H4.45575C4.4655 10.7342 4.47525 10.7387 4.48275 10.747C4.4895 10.7545 4.49325 10.765 4.4925 10.7755C4.43358 11.5978 4.36783 12.4195 4.29525 13.2407C4.24275 13.837 4.05225 14.635 3.654 15.1187C3.6285 15.1495 3.60675 15.1465 3.59025 15.109L3 13.7417ZM10.6215 15.7495H9.003L8.79675 15.6677C8.7675 15.6565 8.75925 15.6362 8.77275 15.607L9.2805 14.4445C9.2955 14.4107 9.3195 14.398 9.354 14.407C9.909 14.5577 10.5517 14.4955 11.1195 14.4977C11.1547 14.4985 11.1645 14.5157 11.1495 14.5487L10.6215 15.7487V15.7495Z" fill="white"/>
</svg>
