<svg width="24" height="24" viewBox="0 0 24 24" fill="none" xmlns="http://www.w3.org/2000/svg">
<g clip-path="url(#clip0_602_3493)">
<path d="M12 21.168C11.76 21.168 11.52 21.108 11.316 20.988C10.356 20.424 1.88403 15.324 1.88403 9.08398C1.88403 6.19198 3.97203 3.20398 7.47603 3.20398C9.25203 3.20398 10.896 3.91198 12 5.12398C13.104 3.92398 14.748 3.20398 16.524 3.20398C20.028 3.20398 22.116 6.19198 22.116 9.08398C22.116 15.336 13.644 20.436 12.684 20.988C12.48 21.108 12.24 21.168 12 21.168ZM7.47603 4.81198C4.99203 4.81198 3.50403 6.97198 3.50403 9.07198C3.50403 14.124 10.908 18.828 12 19.5C13.092 18.828 20.496 14.124 20.496 9.07198C20.496 6.98398 19.008 4.81198 16.524 4.81198C14.892 4.81198 13.428 5.60398 12.708 6.87598C12.42 7.37998 11.592 7.37998 11.304 6.87598C10.572 5.60398 9.12003 4.81198 7.48803 4.81198H7.47603Z" fill="white"/>
</g>
<defs>
<clipPath id="clip0_602_3493">
<rect width="24" height="24" fill="white"/>
</clipPath>
</defs>
</svg>
