<svg width="24" height="24" viewBox="0 0 24 24" fill="none" xmlns="http://www.w3.org/2000/svg">
<g clip-path="url(#clip0_602_3498)">
<path d="M22.116 9.07202C22.116 15.312 13.644 20.424 12.672 20.976C12.468 21.096 12.24 21.168 12 21.168C11.76 21.168 11.52 21.096 11.316 20.988C10.344 20.424 1.88403 15.312 1.88403 9.07202C1.88403 6.18002 3.97203 3.19202 7.47603 3.19202C9.25203 3.19202 10.896 3.91202 12 5.11202C13.104 3.91202 14.736 3.19202 16.512 3.19202C18.132 3.19202 19.608 3.86402 20.652 5.07602C21.576 6.15602 22.116 7.62002 22.116 9.07202Z" fill="#EC2E2E"/>
</g>
<defs>
<clipPath id="clip0_602_3498">
<rect width="24" height="24" fill="white"/>
</clipPath>
</defs>
</svg>
