<svg width="186" height="156" viewBox="0 0 186 156" fill="none" xmlns="http://www.w3.org/2000/svg">
<rect y="0.0152588" width="58.2072" height="86.5506" rx="7.23429" fill="#F7F7F7"/>
<rect x="63.5601" width="58.88" height="43.5102" rx="7.23429" fill="#F7F7F7"/>
<rect x="127.792" y="0.545654" width="58.2072" height="86.5506" rx="7.23429" fill="#F7F7F7"/>
<rect y="91.8717" width="58.2072" height="62.9459" rx="7.23429" fill="#F7F7F7"/>
<rect x="63.5601" y="48.8163" width="58.88" height="107.184" rx="7.23429" fill="#F7F7F7"/>
<rect x="127.792" y="92.4026" width="58.2072" height="62.9459" rx="7.23429" fill="#F7F7F7"/>
<g clip-path="url(#clip0_72_1028)">
<path d="M146.542 64.4357L103.329 52.7928L100.563 63.1267L94.0026 39.9788L40 55.4222L58.7552 121.628L109.443 107.126L133.41 113.591L146.542 64.4357Z" fill="#6A6B6C" fill-opacity="0.11"/>
</g>
<g clip-path="url(#clip1_72_1028)">
<path d="M146.542 59.4639L103.325 47.8142L90.1979 96.9643L133.414 108.614L146.542 59.4639Z" fill="#39383B"/>
<path d="M140.44 63.6991L106.497 54.549L100.588 76.6732L134.531 85.8233L140.44 63.6991Z" fill="white"/>
<path d="M115.101 87.9555L117.238 88.5296L117.021 89.3563L113.992 88.5411L115.364 83.4086L116.255 83.6497L115.101 87.9555Z" fill="white"/>
<path d="M121.741 86.9106L120.816 90.3782L120.027 90.1601L120.084 89.6778C119.787 89.9534 119.284 90.0567 118.816 89.9304C118.016 89.7122 117.696 89.0463 117.924 88.1966L118.507 86.0265L119.364 86.2561L118.861 88.1277C118.69 88.7937 118.861 89.1267 119.353 89.253C119.89 89.4022 120.233 89.1496 120.416 88.4951L120.907 86.681L121.764 86.9106H121.741Z" fill="white"/>
<path d="M124.096 87.4388C125.045 87.6914 125.547 88.3919 125.41 89.253L124.553 89.0234C124.553 88.5985 124.325 88.323 123.925 88.2081C123.376 88.0589 122.907 88.3804 122.736 89.0349C122.564 89.6893 122.793 90.1831 123.33 90.3323C123.753 90.4471 124.107 90.3208 124.302 89.9649L125.159 90.1945C124.839 90.9753 124.016 91.3428 123.113 91.1016C122.062 90.8146 121.57 89.9075 121.867 88.8052C122.153 87.7259 123.067 87.1633 124.085 87.4388H124.096Z" fill="white"/>
<path d="M125.479 91.6412L126.873 86.4169L127.719 86.6465L126.861 89.8615L128.587 88.7707L129.662 89.0578L127.981 90.0797L128.713 92.5139L127.73 92.2498L127.216 90.5504L126.576 90.9408L126.324 91.8709L125.479 91.6412Z" fill="white"/>
<path d="M128.679 93.4554L129.193 93.5932C129.525 93.685 129.765 93.6621 130.016 93.2946L130.187 93.065L129.765 89.0692L130.667 89.3103L130.885 92.0775L132.496 89.8041L133.376 90.0452L130.553 93.8343C130.119 94.4084 129.685 94.5806 129.124 94.4314C128.884 94.3625 128.679 94.2821 128.507 94.1788L128.702 93.4669L128.679 93.4554Z" fill="white"/>
<path d="M112.952 95.3959L112.484 97.1642L111.592 96.923L112.964 91.7905L114.987 92.3302C116.015 92.6058 116.495 93.4554 116.233 94.4659C115.97 95.4533 115.112 95.97 114.095 95.6944L112.964 95.3959H112.952ZM113.638 92.8354L113.17 94.6036L114.107 94.8563C114.724 95.017 115.135 94.7759 115.284 94.2133C115.432 93.6506 115.181 93.2488 114.587 93.088L113.638 92.8354Z" fill="white"/>
<path d="M115.924 98.0942L117.318 92.8699L118.175 93.0995L117.581 95.3041C117.89 95.0285 118.347 94.9137 118.85 95.0515C119.707 95.2811 120.004 95.9471 119.764 96.8427L119.192 98.9784L118.335 98.7487L118.85 96.8197C119.01 96.2341 118.792 95.8782 118.358 95.7634C117.821 95.6141 117.41 95.9126 117.261 96.4293L116.758 98.3239L115.901 98.0942H115.924Z" fill="white"/>
<path d="M122.633 96.0734C123.707 96.3605 124.279 97.3135 123.993 98.3928C123.707 99.4721 122.724 100.012 121.661 99.7247C120.587 99.4377 120.015 98.4846 120.301 97.4053C120.587 96.326 121.57 95.7863 122.633 96.0734ZM121.856 98.9554C122.438 99.1162 122.964 98.7947 123.136 98.1631C123.307 97.5316 123.01 96.992 122.427 96.8312C121.844 96.6705 121.318 96.992 121.147 97.6235C120.976 98.255 121.273 98.7947 121.856 98.9554Z" fill="white"/>
<path d="M124.484 100.402L125.216 97.6464L124.553 97.4627L124.747 96.7508L125.41 96.9345L125.696 95.8552L126.553 96.0849L126.267 97.1642L126.942 97.3479L126.747 98.0598L126.073 97.8761L125.342 100.632L124.484 100.402Z" fill="white"/>
<path d="M129.102 97.8186C130.176 98.1057 130.747 99.0587 130.462 100.138C130.176 101.217 129.193 101.757 128.13 101.47C127.067 101.183 126.484 100.23 126.77 99.1506C127.056 98.0712 128.039 97.5316 129.102 97.8186ZM128.324 100.701C128.907 100.861 129.433 100.54 129.605 99.9084C129.776 99.2769 129.479 98.7372 128.896 98.5765C128.313 98.4157 127.787 98.7372 127.616 99.3687C127.444 100 127.742 100.54 128.324 100.701Z" fill="white"/>
<path d="M94.0079 35.0054L39.9995 50.4409L58.7475 116.649L112.756 101.214L94.0079 35.0054Z" fill="url(#paint0_linear_72_1028)"/>
<path d="M90.1562 43.4728L47.7344 55.5969L56.9286 88.066L99.3504 75.9419L90.1562 43.4728Z" fill="white"/>
<path d="M81.3622 96.7049C82.7337 101.55 79.0306 105.845 73.4075 107.452C67.7843 109.06 62.7784 108.761 60.9954 102.446C59.5211 97.2216 62.8241 91.515 68.4358 89.9075C74.0475 88.3 79.9792 91.8595 81.3622 96.7049Z" fill="white"/>
<path d="M103.431 90.3897C104.803 95.2352 101.1 99.5295 95.4768 101.137C89.8537 102.744 84.8477 102.446 83.0648 96.1308C81.5904 90.9064 84.8934 85.1998 90.5051 83.5923C96.1168 81.9848 102.049 85.5443 103.431 90.3897Z" fill="white"/>
<path d="M76.2875 100.574C77.9286 100.574 79.2591 99.2377 79.2591 97.589C79.2591 95.9402 77.9286 94.6036 76.2875 94.6036C74.6463 94.6036 73.3159 95.9402 73.3159 97.589C73.3159 99.2377 74.6463 100.574 76.2875 100.574Z" fill="#22252A"/>
<path d="M87.8881 97.256C89.5292 97.256 90.8597 95.9194 90.8597 94.2706C90.8597 92.6219 89.5292 91.2853 87.8881 91.2853C86.2469 91.2853 84.9165 92.6219 84.9165 94.2706C84.9165 95.9194 86.2469 97.256 87.8881 97.256Z" fill="#22252A"/>
</g>
<defs>
<linearGradient id="paint0_linear_72_1028" x1="67.0037" y1="42.7231" x2="85.9128" y2="108.885" gradientUnits="userSpaceOnUse">
<stop stop-color="#FF7671"/>
<stop offset="1" stop-color="#FF4F4F"/>
</linearGradient>
<clipPath id="clip0_72_1028">
<rect width="106.542" height="81.6493" fill="white" transform="translate(40 39.9788)"/>
</clipPath>
<clipPath id="clip1_72_1028">
<rect width="106.542" height="81.6493" fill="white" transform="translate(40 35)"/>
</clipPath>
</defs>
</svg>
