<svg width="144" height="32" viewBox="0 0 144 32" fill="none" xmlns="http://www.w3.org/2000/svg">
<g clip-path="url(#clip0_4_19)">
<path d="M6.43686 5.44917C6.08902 5.44836 5.80659 5.73132 5.8058 6.0818L5.79862 8.89205C5.79782 9.24253 6.07864 9.52709 6.42649 9.52789C6.43526 9.52789 6.44324 9.52789 6.45201 9.52789C6.78789 9.51503 7.05675 9.2369 7.05755 8.89526L7.06473 6.08501C7.06552 5.73453 6.7847 5.44997 6.43686 5.44917Z" fill="#EC2E2E"/>
<path d="M6.42966 9.6083H6.42647C6.2374 9.6083 6.05949 9.53274 5.92546 9.39769C5.79142 9.26265 5.71803 9.08258 5.71883 8.89207L5.72601 6.08182C5.72601 5.8905 5.801 5.71124 5.93503 5.577C6.06906 5.44276 6.24617 5.3688 6.43525 5.3688H6.43764C6.82857 5.36961 7.14609 5.69115 7.14529 6.08584L7.13811 8.89609C7.13731 9.28113 6.83734 9.59464 6.4552 9.6083C6.44642 9.6083 6.43764 9.6083 6.42966 9.6083ZM6.43525 5.52957C6.28925 5.52957 6.15123 5.58665 6.04752 5.69115C5.94301 5.79565 5.88557 5.93471 5.88557 6.08262L5.87839 8.89288C5.87839 9.04078 5.93503 9.17985 6.03874 9.28515C6.14246 9.39046 6.28048 9.44833 6.42727 9.44833C6.43445 9.44833 6.44243 9.44833 6.44961 9.44833C6.74559 9.43708 6.97775 9.19432 6.97855 8.89609L6.98573 6.08584C6.98573 5.78038 6.74001 5.53118 6.43685 5.53038H6.43525V5.52957Z" fill="#EC2E2E"/>
<path d="M3.46452 10.8865L1.06713 9.21853C0.780716 9.01917 0.388996 9.09152 0.191142 9.3801C-0.00671269 9.66868 0.0650894 10.0634 0.3515 10.2627L2.74889 11.9307C2.86537 12.0119 2.9986 12.0473 3.12944 12.0424C3.32091 12.0352 3.5076 11.9404 3.62488 11.7691C3.82273 11.4806 3.75093 11.0859 3.46452 10.8865Z" fill="#EC2E2E"/>
<path d="M3.10599 12.1236C2.96158 12.1236 2.82356 12.0802 2.70389 11.9966L0.306504 10.3287C-0.0150092 10.1044 -0.0963848 9.65825 0.126202 9.3343C0.233905 9.17755 0.395858 9.07144 0.582543 9.03768C0.769229 9.00311 0.95751 9.04411 1.11308 9.15263L3.51047 10.8206C3.83198 11.0449 3.91336 11.491 3.69077 11.815C3.56233 12.0023 3.35889 12.1148 3.13311 12.1228C3.12434 12.1228 3.11556 12.1228 3.10599 12.1228V12.1236ZM0.710191 9.18639C0.676684 9.18639 0.643176 9.1896 0.609668 9.19523C0.465267 9.22176 0.340012 9.30375 0.256243 9.42513C0.0839181 9.67673 0.146944 10.0224 0.395858 10.196L2.79325 11.864C2.89138 11.9323 3.00706 11.9661 3.12593 11.9621C3.30145 11.9556 3.45861 11.868 3.55834 11.7233C3.73066 11.4717 3.66764 11.1261 3.41872 10.9524L1.02133 9.28446C0.928789 9.22015 0.820288 9.18639 0.710191 9.18639Z" fill="#EC2E2E"/>
<path d="M2.78415 5.25162C2.61422 4.93008 2.21771 4.80789 1.89859 4.97911C1.57947 5.15033 1.45821 5.54984 1.62814 5.87138L3.62423 9.65108C3.7463 9.88178 3.98404 10.0096 4.22737 10.0008C4.32311 9.99754 4.41964 9.97181 4.50979 9.92358C4.82891 9.75236 4.95018 9.35285 4.78025 9.03131L2.78415 5.25162Z" fill="#EC2E2E"/>
<path d="M4.20296 10.0819C3.9333 10.0819 3.6804 9.92992 3.55355 9.68957L1.55745 5.90988C1.36757 5.54976 1.5032 5.10041 1.86061 4.90829C2.21803 4.71697 2.664 4.85362 2.85467 5.21375L4.85077 8.99344C4.94331 9.16788 4.96246 9.36804 4.90502 9.55774C4.84758 9.74665 4.72073 9.90179 4.54761 9.99504C4.44868 10.0481 4.34177 10.077 4.23008 10.081C4.2213 10.081 4.21173 10.081 4.20296 10.081V10.0819ZM2.20526 4.98224C2.11431 4.98224 2.02177 5.00394 1.9364 5.04976C1.65638 5.20008 1.55027 5.55136 1.69866 5.83351L3.69476 9.61321C3.79927 9.81096 4.00031 9.92993 4.2245 9.92028C4.31146 9.91706 4.39523 9.89456 4.47261 9.85276C4.60824 9.78041 4.70796 9.65822 4.75264 9.51032C4.79732 9.36241 4.78216 9.20566 4.71036 9.069L2.71426 5.28931C2.61134 5.09397 2.41189 4.98224 2.20526 4.98224Z" fill="#EC2E2E"/>
<path d="M10.5948 18.0841C10.5876 18.6564 10.7455 19.2239 11.0415 19.6998C10.8756 19.7135 10.7982 19.6805 10.7639 19.6556C10.7264 19.6283 10.7232 19.5985 10.7232 19.5945V19.5857C10.4153 17.1701 9.57677 15.6356 8.92816 14.773C8.34656 14.0013 7.81044 13.6147 7.62535 13.4949C7.63812 12.7393 8.04499 12.0954 8.72153 11.7626C9.42918 11.4154 10.2509 11.4869 10.815 11.9443C11.6814 12.6469 12.3986 14.437 12.701 15.2819C11.4707 15.6074 10.6107 16.7433 10.594 18.0833L10.5948 18.0841Z" fill="#FEF2F2"/>
<path d="M9.35262 19.326C9.36618 20.0776 9.08376 20.592 8.51573 20.8541C8.49897 20.8613 8.48302 20.8686 8.46387 20.8766C8.44951 20.883 8.43435 20.8887 8.416 20.8959C8.40005 20.9023 8.38409 20.9079 8.36813 20.9136L8.35218 20.9184C8.32745 20.9272 8.30271 20.9345 8.27639 20.9409C7.86712 21.0534 7.39801 21.0076 6.91933 20.8075C6.41352 20.5961 5.92128 20.2199 5.49605 19.7199C4.38472 18.4112 3.80073 16.5374 4.22037 15.6275C4.30494 15.4442 4.40546 15.2842 4.52194 15.1476C4.63842 15.0109 4.77005 14.8968 4.91685 14.8083C5.32532 14.5608 5.77449 14.5439 6.01542 14.535C6.30582 14.5238 6.5308 14.5977 6.6393 14.6428C6.64249 14.6436 6.64489 14.6452 6.64728 14.6452C7.1459 14.8558 7.80489 15.5599 8.36734 16.4812C8.98005 17.486 9.33906 18.5229 9.35342 19.3268L9.35262 19.326Z" fill="#FEF2F2"/>
<path d="M19.9455 25.604C19.6751 25.8596 19.3807 26.0984 19.0719 26.3122C17.2649 27.5606 15.2146 27.8274 13.8136 27.8315H13.6557V27.8331C12.6297 27.8162 10.5706 27.6297 8.81622 26.5212C8.81223 26.518 8.80824 26.5164 8.80505 26.5131C8.44843 26.2784 8.12692 26.026 7.83732 25.764C7.83333 25.7607 7.83014 25.7575 7.82695 25.7543C7.00282 25.0059 6.44037 24.1764 6.07019 23.4312C5.65693 22.6008 5.43275 21.8701 5.32903 21.4698C6.44675 22.4553 8.03756 22.7905 8.96301 22.5212C8.98774 22.514 9.01168 22.506 9.03641 22.4979C10.0608 22.1507 10.5291 21.2134 10.6424 20.9505C11.1809 20.895 11.6325 20.7914 11.9867 20.6402C12.3353 20.8605 12.7422 21.0261 13.1985 21.1322C14.2165 21.3685 15.6964 21.5325 16.9665 20.9682C16.9857 20.9602 17.0032 20.9513 17.0208 20.9433C17.0375 20.936 17.0527 20.9288 17.0679 20.9216C17.0814 20.9159 17.0942 20.9103 17.1062 20.9031C17.1285 20.8926 17.15 20.8814 17.1692 20.8709C17.1907 20.8605 17.2107 20.8492 17.2338 20.8372C17.2538 20.8259 17.2745 20.8147 17.2936 20.8042C17.3128 20.793 17.3319 20.7825 17.3527 20.7705L17.3814 20.7528C17.4045 20.7383 17.4269 20.7254 17.4492 20.711L17.4564 20.7069C17.462 20.7029 17.4684 20.6997 17.47 20.6981C17.4851 20.6893 17.4987 20.6796 17.5114 20.67C17.5426 20.6499 17.5713 20.629 17.5984 20.6097C17.6247 20.5912 17.6495 20.5727 17.6734 20.5542L17.7149 20.5221V20.5172C17.8234 20.4143 17.9303 20.2777 17.892 20.1571C17.8609 20.0598 17.7747 20.0076 17.667 20.0205L17.6503 20.0229C17.6503 20.0229 17.6447 20.0245 17.6423 20.0245L17.6176 20.0293C17.612 20.0293 17.6064 20.0309 17.6024 20.0317C17.5569 20.0406 17.5106 20.0486 17.4652 20.0566C17.3974 20.0679 17.3303 20.0791 17.2617 20.0888C17.2115 20.0976 17.1604 20.1041 17.1101 20.1105L17.1022 20.1121C17.0623 20.1169 17.0224 20.1226 16.9817 20.1274L16.9298 20.1338C16.878 20.1394 16.8253 20.1451 16.7743 20.1499H16.7631C16.716 20.1555 16.6706 20.1595 16.6227 20.1635C16.566 20.1684 16.511 20.1724 16.4528 20.1756C16.4376 20.1764 16.4216 20.178 16.4041 20.1788C16.357 20.1812 16.3108 20.1836 16.2645 20.1853C14.8316 20.2391 13.6469 19.9055 12.9281 19.2447C12.4047 18.7632 12.1718 18.1539 12.2539 17.4819C12.289 17.1957 12.4446 16.9506 12.7151 16.7536C14.1272 15.7247 18.1034 16.1692 20.0086 16.5478C20.9388 16.7327 21.6927 17.5856 22.0254 18.8292C22.0485 18.9144 22.0701 19.0044 22.0892 19.0993L22.1028 19.1684C22.595 21.7592 21.865 23.7905 19.9471 25.6064L19.9455 25.604Z" fill="#FEF2F2"/>
<path fill-rule="evenodd" clip-rule="evenodd" d="M13.0816 0.000865706C14.506 -0.0256171 15.6427 0.386959 16.4283 1.25477C16.9324 1.81153 17.1857 2.62315 17.3169 3.36805C17.3848 3.75305 17.4209 4.12895 17.441 4.45594C17.5476 4.27608 17.6685 4.08856 17.7994 3.90321C18.1139 3.45777 18.4976 3.01117 18.9 2.71083C19.9214 1.94795 21.5961 1.21107 23.7017 2.07899C24.8491 2.55162 25.6509 3.27627 26.0572 4.24012L26.0601 4.2411L26.0884 4.31239C26.4143 5.13481 26.3893 5.97867 26.2837 6.61708C26.1816 7.235 26.0017 7.67576 25.9722 7.74501L25.9664 7.75868V7.76161C25.781 8.23465 24.8255 10.661 24.3492 11.7186C23.9044 12.7045 23.1586 15.1728 22.9742 15.7929C24.5749 18.0916 24.6024 20.3988 24.3384 21.9374C24.1928 22.7823 23.9409 23.4472 23.7242 23.9042C23.5123 24.351 23.3187 24.6235 23.3287 24.6054L23.3277 24.6063V24.6083C23.3004 24.6547 23.2691 24.7073 23.2359 24.7655L23.1021 24.996C22.7541 25.5808 22.1354 26.4848 20.8628 27.3085C19.6994 28.0616 18.3988 28.5952 16.9966 28.8934C16.2797 29.0462 15.5258 29.1383 14.7554 29.1669C13.6585 29.2076 12.5059 29.1216 11.3287 28.912C8.28284 28.3711 5.93522 26.8693 4.37066 24.4472C2.89413 22.1623 2.6271 19.9779 2.57574 19.2235C2.31981 18.5718 2.13498 17.8316 2.02398 17.0214L2.00249 16.8563C1.75255 14.8273 2.72848 13.6899 3.59234 13.1015C4.26039 12.6464 4.96696 12.4438 5.30035 12.3671C5.73549 10.9436 6.68967 10.2078 7.42535 9.84169L7.48199 9.81337C7.95207 9.5877 8.38964 9.47808 8.67925 9.42567C8.56649 8.32537 8.48893 6.86427 8.63531 5.42469C8.78982 3.90562 9.19668 2.37833 10.1031 1.3329C10.8496 0.471921 11.8569 0.0244504 13.0816 0.000865706ZM16.1705 16.3241C15.4731 16.3093 14.7967 16.3379 14.2115 16.4325C13.6223 16.5277 13.1454 16.6866 12.8296 16.9169C12.5959 17.0871 12.4769 17.2856 12.4498 17.5067C12.376 18.1108 12.5815 18.6562 13.0601 19.0966C13.7253 19.7072 14.8504 20.0371 16.2554 19.9843C16.3046 19.9817 16.3437 19.9805 16.3882 19.9774H16.4019C16.4047 19.9774 16.4086 19.9768 16.4146 19.9765C16.4179 19.9762 16.421 19.9767 16.4253 19.9765L16.6031 19.9638H16.607L16.6099 19.9628C16.6504 19.9607 16.6915 19.9565 16.7369 19.9511L16.7486 19.9501H16.7623C16.8087 19.9456 16.8561 19.9408 16.9058 19.9354L16.9556 19.9286H16.9566C17.0038 19.923 17.0202 19.9208 17.0679 19.9149H17.0689L17.0748 19.913H17.0806C17.1394 19.9045 17.1783 19.8998 17.2261 19.8915H17.2291L17.232 19.8905C17.2648 19.8859 17.2978 19.8811 17.3306 19.8759L17.4312 19.8593C17.4761 19.8513 17.519 19.844 17.5611 19.8358C17.562 19.8356 17.5643 19.8352 17.566 19.8349C17.5686 19.8343 17.5732 19.8329 17.5787 19.8319L17.5992 19.828C17.6063 19.8264 17.6116 19.8261 17.6119 19.8261C17.6142 19.8256 17.6163 19.8253 17.6177 19.8251L17.6197 19.8241L17.6353 19.8222L17.6402 19.8212C17.7322 19.8096 17.8273 19.8249 17.9097 19.8749C17.9876 19.9221 18.043 19.9941 18.0738 20.078L18.0806 20.0956C18.1241 20.2328 18.0781 20.3586 18.0298 20.4432C17.9969 20.5008 17.9547 20.5539 17.9127 20.5995V20.621L17.8345 20.6806L17.7925 20.7128C17.7669 20.7326 17.7399 20.7537 17.7105 20.7743C17.6876 20.7906 17.657 20.8126 17.6246 20.8339C17.6084 20.8461 17.5917 20.8566 17.5796 20.8641C17.5747 20.8677 17.5696 20.8711 17.565 20.8739L17.5601 20.8778L17.5513 20.8827C17.5289 20.8964 17.507 20.9099 17.4849 20.9237V20.9247L17.4556 20.9423L17.4537 20.9432L17.4517 20.9452C17.4371 20.9537 17.4128 20.9677 17.3892 20.9804C17.3692 20.992 17.3454 21.0052 17.3306 21.0136L17.3277 21.0155L17.3248 21.0165C17.3103 21.024 17.2812 21.0399 17.2574 21.0516L17.1558 21.1024C17.1386 21.1114 17.121 21.119 17.1031 21.1268L17.0523 21.1503L17.0474 21.1532C15.7179 21.7451 14.1844 21.5692 13.1539 21.33C12.7168 21.2274 12.3184 21.072 11.9693 20.8661C11.6354 20.9949 11.2343 21.086 10.7759 21.1395C10.5963 21.5088 10.0933 22.3525 9.10015 22.6893L9.09722 22.6903C9.07497 22.6976 9.04645 22.7074 9.01812 22.7157C8.51094 22.8634 7.84329 22.8414 7.16753 22.662C6.67212 22.5305 6.16244 22.3117 5.69585 22.0028C5.81404 22.3576 5.98142 22.794 6.21148 23.2665L6.24957 23.3427C6.5989 24.0465 7.12369 24.8269 7.88628 25.538L7.96148 25.6063L7.96539 25.6093L7.96734 25.6122L7.97124 25.6161C8.25164 25.8705 8.56513 26.1153 8.91167 26.3436C8.91272 26.3443 8.91428 26.3458 8.91558 26.3466C8.91905 26.3487 8.92295 26.3514 8.9273 26.3544C10.5927 27.4048 12.5489 27.606 13.5835 27.6307H13.814C15.1945 27.6267 17.198 27.3627 18.9595 26.1464C19.2295 25.9599 19.4872 25.7547 19.7271 25.535L19.8072 25.4599C20.7485 24.5689 21.3897 23.6331 21.7378 22.6122C22.0855 21.5923 22.1457 20.4732 21.9048 19.2069L21.8912 19.1376C21.8732 19.0495 21.8521 18.963 21.8306 18.8817C21.5088 17.6818 20.7968 16.9099 19.9673 16.745C19.0235 16.5574 17.565 16.3538 16.1705 16.3241ZM6.02398 14.7352C5.78156 14.7441 5.38077 14.7623 5.02007 14.9804C4.89253 15.0579 4.77672 15.157 4.67339 15.2782C4.58199 15.3855 4.49988 15.5114 4.42828 15.6552L4.40191 15.7128C4.22449 16.0986 4.24727 16.7338 4.47515 17.4647C4.69284 18.1628 5.08604 18.909 5.59917 19.5302L5.64898 19.5897C6.05753 20.0708 6.52511 20.4258 6.99664 20.6229C7.44479 20.8092 7.86775 20.8459 8.22515 20.747H8.22808L8.23003 20.746C8.25201 20.7404 8.27111 20.7353 8.28765 20.7294L8.29253 20.7274L8.29644 20.7265L8.30718 20.7235C8.32218 20.7182 8.33377 20.7141 8.34429 20.7099L8.3521 20.7059C8.3633 20.702 8.37376 20.6984 8.38531 20.6932L8.39019 20.6903L8.39605 20.6884C8.40938 20.6833 8.42213 20.6786 8.43511 20.6727C8.68316 20.5578 8.86155 20.3919 8.97906 20.1776C9.09783 19.9608 9.16073 19.6812 9.15484 19.3309L9.15289 19.2587C9.11993 18.5127 8.7819 17.5432 8.19878 16.5868C7.92351 16.1355 7.62595 15.7404 7.33941 15.4345C7.05461 15.1304 6.79178 14.927 6.5816 14.8349L6.57769 14.8339L6.56402 14.828C6.49564 14.7997 6.36866 14.7559 6.20269 14.7401L6.02398 14.7352ZM10.691 12.1015C10.1982 11.7021 9.47044 11.6287 8.82964 11.9354L8.80914 11.9452C8.23232 12.2283 7.87552 12.7595 7.82964 13.3925C8.08041 13.5693 8.56784 13.9628 9.08746 14.6522V14.6532C9.53739 15.2516 10.0713 16.1569 10.4673 17.4335C10.6932 16.3703 11.4329 15.501 12.4419 15.1522C12.2893 14.7423 12.0664 14.1907 11.7935 13.6532C11.4702 13.0164 11.0895 12.425 10.691 12.1015ZM13.4615 2.31141C13.0413 2.34748 12.4461 2.53842 12.0035 3.27626L11.8843 3.49501C11.6225 4.02868 11.4687 4.73024 11.4351 5.60145V5.60829C11.435 5.61009 11.4342 5.6112 11.4341 5.61219V5.63758C11.4341 5.64061 11.4332 5.64449 11.4332 5.65126V5.65809C11.419 6.05032 11.3496 8.39408 11.5835 10.5429C11.5856 10.5445 11.5874 10.547 11.5894 10.5487C11.6265 10.5795 11.6744 10.6198 11.7085 10.6513C11.9626 10.8779 13.4602 12.2939 14.2349 14.8241C14.7718 14.7614 15.3379 14.7182 15.9205 14.6962C17.5569 14.6355 19.0785 14.745 20.0464 14.8788C20.6356 13.5278 22.7049 8.80579 23.3267 7.64247L23.3609 7.57801C23.6149 7.08844 23.7761 6.61529 23.8433 6.19423C23.9137 5.75294 23.879 5.38242 23.7544 5.10829C23.59 4.74763 23.2497 4.48912 22.6919 4.36415C21.802 4.16544 21.0215 4.42035 20.3345 5.1493C19.6369 5.88958 19.0369 7.12015 18.5533 8.86219C18.4225 9.33695 18.3034 9.77267 18.1949 10.1698C17.8261 11.5234 17.5698 12.4664 17.3072 13.0653C17.1754 13.3657 17.0333 13.6013 16.858 13.7606C16.6744 13.9273 16.4637 14.0027 16.2222 13.997H16.2193C15.9937 13.9885 15.8444 13.8261 15.7457 13.6298C15.6465 13.4326 15.5704 13.1511 15.5074 12.7919C15.4004 12.1871 15.3237 11.3052 15.2769 10.1737L15.2681 9.94423C15.1961 7.99181 15.2246 5.7762 15.2623 4.76063C15.297 3.81935 15.0643 3.12295 14.6334 2.7079C14.3256 2.41185 13.9245 2.27253 13.4615 2.31141Z" fill="#EC2E2E"/>
<path d="M23.5014 7.73787C22.8608 8.93641 20.6597 13.9685 20.1674 15.0987C19.2236 14.9572 17.6392 14.8334 15.9271 14.8969C15.2889 14.9211 14.6722 14.9701 14.0922 15.0432C13.3478 12.4605 11.82 11.0192 11.5759 10.8013C11.5161 10.7459 11.3932 10.647 11.3932 10.647C11.1467 8.46053 11.2193 6.04979 11.2336 5.65108C11.2336 5.63822 11.2336 5.62777 11.2344 5.61892C11.2344 5.61089 11.2344 5.60204 11.2352 5.59401C11.2743 4.57874 11.4738 3.76686 11.832 3.17201C12.3147 2.36736 12.9752 2.15112 13.4444 2.11093C13.9605 2.06752 14.4185 2.22427 14.7703 2.56269C15.2578 3.03214 15.4971 3.79419 15.4612 4.76765C15.4237 5.77889 15.395 7.98947 15.4668 9.93639C15.5123 11.1767 15.592 12.1261 15.7037 12.7571C15.8282 13.4661 15.9893 13.7868 16.2263 13.7957C16.9954 13.8142 17.2602 12.8399 18.0022 10.1165C18.1107 9.71935 18.2296 9.28367 18.3604 8.80859C19.3345 5.29899 20.8057 3.73712 22.7347 4.16798C23.3339 4.30222 23.7376 4.59 23.9354 5.02408C24.2282 5.66796 24.0663 6.68161 23.5022 7.73787H23.5014Z" fill="#FEF2F2"/>
<path d="M11.2363 5.59399C11.2363 5.59399 11.2363 5.60477 11.2355 5.61971C11.2355 5.61141 11.2355 5.60228 11.2363 5.59399Z" fill="#FEF2F2"/>
</g>
<g clip-path="url(#clip1_4_19)">
<path d="M41.0951 21.12L39.6531 20.8518L39.6514 20.7635C39.6496 20.6877 39.6488 20.6118 39.6479 20.5359C39.6409 20.0311 39.6331 19.5255 39.6261 19.0207C39.6192 18.5328 39.6157 18.0368 39.6157 17.5056V9.43226L39.7009 6.35875C39.7009 6.34287 39.6931 6.32787 39.6801 6.31992L39.36 6.12402C39.3505 6.11785 39.3383 6.11608 39.327 6.11873L35.8473 6.99675C35.603 7.05852 35.4325 7.28001 35.4325 7.53503C35.4325 7.81035 35.6351 8.04684 35.9047 8.08478L36.9901 8.23568V17.5056C36.9901 17.9962 36.9866 18.5054 36.9797 19.0207C36.9736 19.4408 36.9675 19.8599 36.9614 20.2791L36.9579 20.5359C36.9579 20.5985 36.9553 20.6603 36.9545 20.723C36.9536 20.7635 36.9527 20.8033 36.9519 20.8438L35.5325 21.1209C35.5116 21.1253 35.4969 21.143 35.4969 21.1642V22.0519C35.4969 22.0766 35.516 22.096 35.5403 22.096H41.0872C41.1116 22.096 41.1307 22.0766 41.1307 22.0519V21.1642C41.1307 21.143 41.1159 21.1245 41.0951 21.1209V21.12Z" fill="#EC2E2E"/>
<path d="M52.7295 21.0405L51.8616 20.8676V14.6482L51.9259 11.7477C51.9259 11.7344 51.9207 11.7212 51.9103 11.7132L51.6328 11.475C51.6233 11.467 51.6111 11.4635 51.5989 11.4653L48.3758 11.9074C48.1236 11.9418 47.934 12.1624 47.934 12.4201C47.934 12.6777 48.1062 12.8789 48.3428 12.9275L49.2995 13.1242L49.2194 19.2986C49.0725 19.4398 48.9185 19.5748 48.762 19.6992C48.4385 19.956 48.108 20.1581 47.7801 20.2993C47.4531 20.4405 47.1322 20.512 46.8261 20.512C46.359 20.512 46.0007 20.354 45.7616 20.0416C45.5198 19.7266 45.3972 19.1636 45.3972 18.3694V14.6482L45.5041 11.7477C45.5041 11.7344 45.4998 11.7221 45.4902 11.7132L45.2345 11.475C45.225 11.4662 45.2119 11.4617 45.1997 11.4635L41.921 11.865C41.6523 11.8977 41.4496 12.1297 41.4496 12.4042C41.4496 12.6574 41.6262 12.8807 41.8706 12.9354L42.8316 13.1498L42.7724 18.4559C42.7577 19.8898 43.0168 20.9152 43.5412 21.5056C44.0665 22.0968 44.791 22.3968 45.6963 22.3968C46.2121 22.3968 46.7156 22.2971 47.1957 22.1012C47.674 21.9053 48.1376 21.6079 48.5733 21.217C48.8194 20.9955 49.0586 20.7414 49.2847 20.459L49.4508 22.2486C49.4525 22.2724 49.4717 22.2901 49.496 22.2883L52.6547 22.1189C52.94 22.1039 53.1635 21.8647 53.1635 21.5744C53.1635 21.3141 52.9809 21.0891 52.7295 21.0396V21.0405Z" fill="#EC2E2E"/>
<path d="M61.0742 11.7397C60.502 11.4714 59.8567 11.3355 59.1574 11.3355C58.1877 11.3355 57.2902 11.5597 56.491 12.0009C55.6909 12.443 55.0464 13.0898 54.575 13.9228C54.1037 14.7558 53.8654 15.7795 53.8654 16.9646C53.8654 18.1497 54.0784 19.0718 54.4994 19.8748C54.9203 20.6796 55.5256 21.3079 56.2979 21.7438C57.0693 22.178 57.9947 22.3986 59.0496 22.3986C59.7349 22.3986 60.3428 22.2997 60.8568 22.1038C61.3725 21.9079 61.8291 21.6167 62.2153 21.2391C62.517 20.9443 62.7875 20.5958 63.0197 20.2031C63.1432 19.9939 63.0997 19.731 62.9154 19.5774C62.724 19.4177 62.4483 19.4336 62.2735 19.6136C62.0892 19.8042 61.897 19.9631 61.703 20.0884C61.4169 20.2728 61.1125 20.406 60.7985 20.4837C60.4837 20.5613 60.1532 20.6011 59.8167 20.6011C59.2296 20.6011 58.6878 20.4572 58.206 20.174C57.7242 19.8907 57.3354 19.453 57.0493 18.8715C56.7623 18.2891 56.6162 17.524 56.6162 16.5966C56.6162 15.6691 56.7475 14.8882 57.0076 14.2758C57.2659 13.666 57.6163 13.2098 58.0477 12.9204C58.4791 12.6309 58.9522 12.4836 59.4531 12.4836C59.6932 12.4836 59.9497 12.5065 60.2132 12.5533L60.4759 13.8081C60.5333 14.3358 60.6881 14.7302 60.9368 14.9817C61.1856 15.2341 61.5117 15.3629 61.9065 15.3629C62.2431 15.3629 62.5144 15.2791 62.7127 15.115C62.911 14.9509 63.0563 14.6958 63.1432 14.3561C63.145 14.3508 63.145 14.3446 63.1441 14.3393C63.0719 13.7852 62.8501 13.2751 62.484 12.8233C62.1187 12.3733 61.6439 12.0088 61.0716 11.7397H61.0742Z" fill="#EC2E2E"/>
<path d="M75.2025 21.5604C75.2025 21.3097 75.0277 21.09 74.7859 21.0371L73.7997 20.8218L70.5358 15.026L72.6517 12.9214L74.198 12.6955C74.4537 12.6584 74.6468 12.4316 74.6468 12.1695C74.6468 11.8766 74.412 11.6383 74.1232 11.6383H70.04C69.7443 11.6383 69.5034 11.8827 69.5034 12.1828C69.5034 12.4404 69.6843 12.6655 69.9339 12.7158L71.0463 12.9434L69.3243 14.703L67.6284 16.4608V9.43224L67.7136 6.35873C67.7136 6.34285 67.7058 6.32785 67.6927 6.3199L67.3727 6.12489C67.3631 6.11871 67.351 6.11694 67.3396 6.11959L63.86 6.99761C63.6156 7.05938 63.4452 7.28087 63.4452 7.53589C63.4452 7.81121 63.6478 8.0477 63.9174 8.08565L65.0028 8.23654V18.6316C65.0028 19.0269 64.9993 19.4381 64.9924 19.8537L64.975 20.8394L63.9331 21.045C63.6878 21.0936 63.5095 21.3124 63.5095 21.5657C63.5095 21.8586 63.7443 22.096 64.0322 22.096H68.6007C68.8877 22.096 69.1216 21.8586 69.1216 21.5674C69.1216 21.3124 68.9425 21.0944 68.6955 21.0477L67.6571 20.8527C67.651 20.5226 67.6449 20.1829 67.6388 19.8326C67.6319 19.4408 67.6284 19.026 67.6284 18.5998V17.9195L68.7068 16.8473L71.5368 22.0739C71.5446 22.0881 71.5594 22.0969 71.575 22.0969H74.6755C74.966 22.0969 75.2025 21.8569 75.2025 21.5621V21.5604Z" fill="#EC2E2E"/>
<path d="M85.4013 11.6373H82.2331C81.9548 11.6373 81.7295 11.8667 81.7295 12.1482C81.7295 12.4006 81.9078 12.6132 82.1539 12.6529L83.3436 12.8453L81.0624 19.3268L78.7134 12.8277L79.9571 12.6476C80.2023 12.6123 80.3867 12.3961 80.3867 12.1447C80.3867 11.8649 80.1623 11.6373 79.8866 11.6373H75.2355C74.9572 11.6373 74.732 11.8667 74.732 12.1482C74.732 12.4006 74.9103 12.6132 75.1564 12.6529L75.8278 12.7615L79.8745 22.7373L79.8327 22.8574C79.664 23.3568 79.4535 23.8351 79.2065 24.279C78.9604 24.7211 78.6717 25.1226 78.349 25.472C78.2986 25.5267 78.2429 25.5832 78.1803 25.6441L78.0725 25.5064C77.7846 25.1561 77.4959 24.9152 77.2141 24.7908C76.9332 24.6663 76.6436 24.6028 76.3539 24.6028C75.9774 24.6028 75.6286 24.6999 75.3181 24.8905C75.0033 25.0828 74.7989 25.3838 74.7111 25.7844C74.7111 25.7879 74.7102 25.7923 74.7102 25.7959C74.725 26.0924 74.832 26.3668 75.0294 26.6121C75.2251 26.8548 75.486 27.0454 75.8043 27.1769C76.1209 27.3083 76.4705 27.3745 76.8445 27.3745C77.4619 27.3745 78.0203 27.1936 78.5021 26.8354C78.9813 26.4797 79.43 25.9282 79.8371 25.1976C80.2406 24.4713 80.6546 23.5404 81.0668 22.432L84.696 12.8188L85.4979 12.6626C85.7379 12.6159 85.9118 12.4014 85.9118 12.1535C85.9118 11.8676 85.6831 11.6355 85.4013 11.6355V11.6373Z" fill="#EC2E2E"/>
<path d="M99.6407 11.9806C99.0171 11.5517 98.3022 11.3347 97.5151 11.3347C97.0568 11.3347 96.6107 11.4159 96.188 11.5756C95.7662 11.7353 95.3496 11.9744 94.9496 12.285C94.7582 12.4342 94.5652 12.6107 94.3764 12.8092L94.2729 11.5906C94.2721 11.5765 94.2642 11.5641 94.2529 11.557L93.912 11.3408C93.9007 11.3338 93.8859 11.332 93.8738 11.3373L90.655 12.5965C90.4454 12.6786 90.3046 12.8869 90.3046 13.1145C90.3046 13.3934 90.5098 13.6299 90.7829 13.6652L91.8213 13.7984C91.8343 14.0693 91.8448 14.3261 91.8517 14.5617C91.8587 14.807 91.8656 15.0673 91.8735 15.3409C91.8804 15.6189 91.8839 15.9613 91.8839 16.3575V22.3968C91.8839 22.8751 91.8804 23.3772 91.8735 23.8899C91.8665 24.3946 91.8596 24.9144 91.8517 25.4483C91.85 25.5992 91.8474 25.7518 91.8448 25.9062L90.7933 26.1092C90.5472 26.1569 90.3689 26.3757 90.3689 26.6298C90.3689 26.9219 90.6029 27.1593 90.8907 27.1593H95.6514C95.9393 27.1593 96.1732 26.9219 96.1732 26.6298C96.1732 26.3757 95.9949 26.1569 95.7488 26.1092L94.4834 25.8648C94.4808 25.7209 94.4791 25.578 94.4773 25.4368L94.4556 23.8564C94.4486 23.3587 94.4451 22.8601 94.4451 22.3739V21.1799C94.5547 21.3008 94.6669 21.4111 94.7782 21.5082C95.1357 21.8206 95.5175 22.0491 95.9123 22.1877C96.3063 22.3253 96.7316 22.3959 97.1742 22.3959C98.003 22.3959 98.7684 22.1674 99.4485 21.7182C100.128 21.2682 100.678 20.6178 101.085 19.7848C101.491 18.9527 101.697 17.96 101.697 16.8322C101.697 15.7045 101.51 14.6588 101.139 13.8478C100.767 13.036 100.263 12.4077 99.6415 11.9788L99.6407 11.9806ZM98.5631 19.1336C98.3396 19.7001 98.0361 20.1237 97.6613 20.3911C97.2864 20.6584 96.8577 20.7943 96.3845 20.7943C95.8697 20.7943 95.387 20.6328 94.9487 20.3152C94.8095 20.2146 94.6617 20.091 94.5078 19.949V13.9008L94.5165 13.8928C94.526 13.8849 94.5347 13.8769 94.5443 13.8699C94.8878 13.5919 95.2331 13.3678 95.5705 13.2045C95.9045 13.0422 96.2289 12.9601 96.5333 12.9601C97.2255 12.9601 97.7987 13.2919 98.2361 13.9475C98.6771 14.6085 98.9006 15.6153 98.9006 16.9425C98.9006 17.8276 98.7866 18.5644 98.5623 19.1345L98.5631 19.1336Z" fill="#EC2E2E"/>
<path d="M113.929 21.0415L113.038 20.8588L113.037 20.7521C113.03 20.2182 113.023 19.6587 113.015 19.0746C113.008 18.5063 113.005 17.9786 113.005 17.5056V15.2545C113.005 13.9088 112.75 12.909 112.248 12.2825C111.744 11.6542 111.007 11.3356 110.059 11.3356C109.572 11.3356 109.09 11.4239 108.625 11.5977C108.16 11.7716 107.704 12.0363 107.269 12.384C106.985 12.6099 106.705 12.879 106.432 13.1834V9.43224L106.518 6.35873C106.518 6.34285 106.51 6.32785 106.497 6.3199L106.177 6.12489C106.167 6.11871 106.155 6.11694 106.144 6.11959L102.727 6.99585C102.483 7.0585 102.313 7.27999 102.313 7.53413C102.313 7.81033 102.517 8.04682 102.787 8.08476L103.871 8.23566V17.5056C103.871 17.9424 103.868 18.4489 103.861 19.0525L103.838 20.8474L102.864 21.0433C102.62 21.0927 102.442 21.3115 102.442 21.5648C102.442 21.8577 102.677 22.096 102.966 22.096H107.275C107.564 22.096 107.799 21.8577 107.799 21.5621C107.799 21.3106 107.622 21.0918 107.379 21.0415L106.531 20.8659L106.529 20.7415C106.522 20.2005 106.514 19.6375 106.507 19.0534C106.5 18.4966 106.497 17.9759 106.497 17.5065V14.4647C106.705 14.2627 106.911 14.0853 107.108 13.9379C107.423 13.7041 107.739 13.5276 108.046 13.4138C108.353 13.3008 108.657 13.2435 108.949 13.2435C109.472 13.2435 109.844 13.4005 110.055 13.7111C110.269 14.0271 110.377 14.6192 110.377 15.4725V17.5074C110.377 17.9645 110.374 18.4921 110.367 19.0763C110.36 19.6605 110.352 20.2199 110.345 20.7538L110.343 20.8553L109.411 21.0441C109.167 21.0936 108.99 21.3124 108.99 21.5657C108.99 21.8586 109.225 22.0969 109.514 22.0969H113.823C114.112 22.0969 114.346 21.8586 114.346 21.5639C114.346 21.3124 114.17 21.0927 113.926 21.0433L113.929 21.0415Z" fill="#EC2E2E"/>
<path d="M122.924 11.9894C122.139 11.5553 121.278 11.3347 120.365 11.3347C119.451 11.3347 118.59 11.5553 117.805 11.9894C117.019 12.4245 116.379 13.0633 115.901 13.8893C115.422 14.7144 115.18 15.7195 115.18 16.8772C115.18 18.035 115.411 19.018 115.867 19.8431C116.324 20.669 116.955 21.3088 117.741 21.7438C118.526 22.178 119.409 22.3986 120.365 22.3986C121.32 22.3986 122.199 22.1815 122.977 21.7544C123.756 21.3273 124.386 20.6911 124.85 19.8651C125.314 19.0392 125.55 18.0341 125.55 16.8772C125.55 15.7203 125.307 14.6967 124.829 13.8778C124.35 13.0589 123.709 12.4236 122.924 11.9894ZM122.424 19.3542C122.235 19.9922 121.967 20.4775 121.626 20.7952C121.287 21.1111 120.862 21.2708 120.365 21.2708C119.867 21.2708 119.438 21.1111 119.092 20.7952C118.744 20.4775 118.48 19.9931 118.305 19.3551C118.13 18.7135 118.04 17.8867 118.04 16.8993C118.04 15.9118 118.13 15.0594 118.305 14.4108C118.48 13.7658 118.744 13.2769 119.092 12.9601C119.438 12.6442 119.865 12.4845 120.365 12.4845C120.864 12.4845 121.287 12.6442 121.626 12.9601C121.967 13.2778 122.235 13.7666 122.424 14.4126C122.614 15.0621 122.71 15.8995 122.71 16.9002C122.71 17.9008 122.614 18.7127 122.424 19.3551V19.3542Z" fill="#EC2E2E"/>
<path d="M132.809 20.6197C132.651 20.4529 132.404 20.422 132.208 20.5447C132.081 20.6241 131.959 20.6912 131.846 20.7441C131.654 20.835 131.444 20.8809 131.224 20.8809C130.897 20.8809 130.632 20.7626 130.436 20.5279C130.238 20.2923 130.137 19.9085 130.137 19.3878V13.0246H132.057C132.433 13.0246 132.74 12.7131 132.74 12.331C132.74 11.9489 132.433 11.6374 132.057 11.6374H130.152L130.244 8.69541C130.244 8.68306 130.24 8.67158 130.232 8.66364C130.224 8.65482 130.213 8.65041 130.201 8.65041H128.494C128.474 8.65041 128.458 8.66364 128.453 8.68306L127.66 11.618L126.457 11.7698C126.146 11.8086 125.912 12.0778 125.912 12.3954C125.912 12.7431 126.191 13.0255 126.533 13.0255H127.491V17.6353C127.491 18.0509 127.487 18.411 127.48 18.7057C127.473 18.9943 127.47 19.304 127.47 19.627C127.47 20.5879 127.723 21.2992 128.221 21.7386C128.718 22.1763 129.399 22.3987 130.244 22.3987C130.687 22.3987 131.09 22.3431 131.441 22.2345C131.793 22.1251 132.11 21.9592 132.383 21.7404C132.556 21.601 132.714 21.443 132.852 21.2692C133.001 21.083 132.987 20.8094 132.82 20.6329L132.81 20.6215L132.809 20.6197Z" fill="#EC2E2E"/>
<path d="M142.942 13.8778C142.464 13.0589 141.823 12.4236 141.037 11.9894C140.252 11.5553 139.391 11.3347 138.478 11.3347C137.565 11.3347 136.703 11.5553 135.918 11.9894C135.132 12.4245 134.492 13.0633 134.014 13.8893C133.535 14.7144 133.293 15.7195 133.293 16.8772C133.293 18.035 133.524 19.018 133.981 19.8431C134.437 20.669 135.068 21.3088 135.854 21.7438C136.639 22.178 137.521 22.3986 138.478 22.3986C139.435 22.3986 140.312 22.1815 141.09 21.7544C141.869 21.3273 142.499 20.6911 142.964 19.8651C143.427 19.0392 143.663 18.0341 143.663 16.8772C143.663 15.7203 143.42 14.6967 142.942 13.8787V13.8778ZM140.537 19.3542C140.349 19.9931 140.08 20.4775 139.739 20.7952C139.4 21.1111 138.975 21.2708 138.478 21.2708C137.98 21.2708 137.551 21.1111 137.206 20.7952C136.858 20.4775 136.593 19.9931 136.419 19.3551C136.243 18.7135 136.153 17.8867 136.153 16.8993C136.153 15.9118 136.243 15.0603 136.419 14.4108C136.593 13.7658 136.858 13.2769 137.206 12.9601C137.551 12.6442 137.979 12.4845 138.478 12.4845C138.977 12.4845 139.401 12.6442 139.739 12.9601C140.08 13.2778 140.349 13.7666 140.537 14.4126C140.727 15.0621 140.823 15.8995 140.823 16.9002C140.823 17.9008 140.727 18.7127 140.537 19.3551V19.3542Z" fill="#EC2E2E"/>
</g>
<defs>
<clipPath id="clip0_4_19">
<rect width="26.3529" height="29.1765" fill="white"/>
</clipPath>
<clipPath id="clip1_4_19">
<rect width="108.23" height="21.2595" fill="white" transform="translate(35.4325 6.11765)"/>
</clipPath>
</defs>
</svg>
