<svg width="330" height="62" viewBox="0 0 330 62" fill="none" xmlns="http://www.w3.org/2000/svg">
<g clip-path="url(#clip0_3_208)">
<path d="M1.57 36.8016C1.12 36.4816 0.489995 36.5916 0.179995 37.0416C-0.140005 37.4916 -0.0300048 38.1216 0.419995 38.4316L7.06 43.0916C7.23 43.2116 7.44 43.2716 7.63 43.2716C7.94 43.2716 8.25 43.1216 8.45 42.8416C8.76999 42.3916 8.66 41.7616 8.21 41.4516L1.57 36.8016Z" fill="#0EC423"/>
<path d="M7.85815 28.4904C7.57815 28.0104 6.95815 27.8604 6.48815 28.1404C6.01815 28.4204 5.85815 29.0404 6.13815 29.5104L10.8682 37.4904C11.0582 37.8104 11.3882 37.9804 11.7282 37.9804C11.8982 37.9804 12.0782 37.9404 12.2382 37.8404C12.7082 37.5604 12.8682 36.9404 12.5882 36.4704L7.85815 28.4904Z" fill="#0EC423"/>
<path d="M18.37 28.6416C18.32 28.0916 17.85 27.6816 17.29 27.7316C16.74 27.7816 16.33 28.2616 16.38 28.8116L17.02 36.3616C17.06 36.8816 17.5 37.2816 18.02 37.2816C18.05 37.2816 18.08 37.2816 18.1 37.2816C18.65 37.2316 19.06 36.7516 19.01 36.2016L18.37 28.6516V28.6416Z" fill="#0EC423"/>
</g>
<path fill-rule="evenodd" clip-rule="evenodd" d="M274.85 14.6761C275.094 14.6849 275.297 14.8686 275.328 15.1107C275.494 16.3821 275.874 17.0219 276.258 17.4192C276.457 17.6252 276.672 17.7824 276.903 17.9358C277.119 18.0797 277.392 18.2453 277.618 18.4319C277.762 18.5512 277.826 18.7423 277.786 18.9251C277.746 19.1076 277.608 19.2527 277.427 19.3011C276.826 19.4625 276.202 20.0101 275.644 20.7269C275.099 21.4274 274.677 22.2098 274.46 22.7073C274.368 22.9188 274.143 23.04 273.915 23.0003C273.688 22.9605 273.518 22.7704 273.503 22.5403C273.372 20.5259 272.094 19.2183 271.516 18.8411C271.334 18.7219 271.25 18.4991 271.308 18.2894C271.367 18.0793 271.555 17.9306 271.773 17.9232C272.528 17.8972 273.109 17.4716 273.547 16.8753C273.989 16.2737 274.246 15.5487 274.342 15.0765C274.391 14.837 274.606 14.6675 274.85 14.6761ZM266.644 0.000298758C266.888 0.00891456 267.091 0.192749 267.122 0.434869C267.481 3.18312 268.316 4.63554 269.215 5.56573C269.672 6.0381 270.16 6.39171 270.653 6.72003C271.131 7.03874 271.656 7.35872 272.099 7.72491C272.243 7.84412 272.309 8.03367 272.269 8.21612C272.229 8.39871 272.09 8.54355 271.91 8.5921C270.475 8.97651 269.079 10.2403 267.894 11.762C266.722 13.2674 265.819 14.9435 265.351 16.0179C265.259 16.2292 265.034 16.3501 264.807 16.3108C264.58 16.2712 264.408 16.081 264.393 15.8509C264.104 11.4336 261.313 8.5625 259.997 7.70342C259.815 7.58432 259.73 7.36061 259.788 7.15069C259.847 6.94077 260.035 6.79195 260.253 6.78448C262.055 6.72293 263.406 5.70053 264.382 4.37237C265.362 3.03916 265.924 1.44762 266.136 0.400689C266.185 0.161326 266.4 -0.00809726 266.644 0.000298758Z" fill="#FF8D4F"/>
<mask id="mask0_3_208" style="mask-type:luminance" maskUnits="userSpaceOnUse" x="298" y="23" width="32" height="38">
<path d="M329.498 28.9006L304.642 23.7216L298 55.597L322.856 60.7761L329.498 28.9006Z" fill="white"/>
</mask>
<g mask="url(#mask0_3_208)">
<path d="M308.309 57.7449C307.819 57.643 307.484 57.1951 307.517 56.6913C307.561 56.1386 308.035 55.7266 308.588 55.7703C318.572 56.5329 321.407 51.9958 322.168 50.0093C322.571 48.9594 322.699 47.8523 322.586 46.8276C320.952 47.5598 319.078 47.7821 317.475 47.3358C316.017 46.9299 315.089 45.9398 314.928 44.6088C314.758 43.215 315.505 41.7873 316.794 41.0446C317.525 40.6249 319.492 39.8601 322.03 41.7985C322.691 42.3039 323.239 42.9595 323.656 43.7002C323.773 43.5815 323.882 43.451 323.991 43.3205C325.259 41.695 325.233 39.6159 323.918 37.2989C322.895 35.4923 321.549 34.5479 320.343 34.0617C319.53 35.9046 317.625 37.2033 316.011 37.4493C314.681 37.6524 313.581 37.1983 312.983 36.1953C312.497 35.3892 312.486 34.5086 312.94 33.7041C313.682 32.398 315.593 31.5602 317.809 31.5623C318.045 31.5603 318.339 31.5705 318.678 31.6105C318.416 30.565 317.51 29.7125 316.682 29.1312C310.858 25.0169 305.496 29.2316 305.265 29.4083C304.835 29.7578 304.206 29.6881 303.856 29.2577C303.506 28.8274 303.576 28.1984 304.005 27.8586C304.068 27.8003 310.749 22.5017 317.83 27.491C320.12 29.1019 320.704 30.807 320.749 32.0625C322.386 32.6385 324.261 33.8362 325.657 36.3029C327.98 40.4028 326.594 43.2296 325.564 44.5471C325.231 44.9681 324.843 45.3572 324.423 45.7088C324.777 47.2944 324.674 49.0606 324.043 50.7167C322.13 55.7319 316.302 58.3582 308.448 57.7637C308.409 57.7556 308.36 57.7454 308.321 57.7372L308.309 57.7449ZM319.202 42.578C318.683 42.4699 318.2 42.5327 317.782 42.7725C317.203 43.1013 316.839 43.771 316.91 44.358C316.984 44.9862 317.558 45.2693 318.01 45.4043C319.223 45.7593 320.735 45.5125 322.023 44.8717C321.728 44.279 321.312 43.7736 320.811 43.3832C320.256 42.961 319.709 42.6938 319.2 42.5878L319.202 42.578ZM318.34 33.5729C318.141 33.5517 317.956 33.5542 317.803 33.5529C316.189 33.5537 314.986 34.1305 314.678 34.6791C314.598 34.8158 314.581 34.9451 314.701 35.1539C314.868 35.4337 315.204 35.5345 315.701 35.4542C316.63 35.3106 317.744 34.5723 318.34 33.5729Z" fill="#7F43FF"/>
</g>
<defs>
<clipPath id="clip0_3_208">
<rect width="19.01" height="15.55" fill="white" transform="translate(0 27.7216)"/>
</clipPath>
</defs>
</svg>
