<svg width="144" height="32" viewBox="0 0 144 32" fill="none" xmlns="http://www.w3.org/2000/svg">
<mask id="mask0_759_347" style="mask-type:luminance" maskUnits="userSpaceOnUse" x="0" y="0" width="27" height="30">
<path d="M26.3529 0H0V29.1765H26.3529V0Z" fill="white"/>
</mask>
<g mask="url(#mask0_759_347)">
<path d="M6.43707 5.44916C6.08923 5.44835 5.8068 5.73131 5.80601 6.08179L5.79883 8.89204C5.79803 9.24252 6.07885 9.52708 6.4267 9.52788C6.43547 9.52788 6.44345 9.52788 6.45222 9.52788C6.7881 9.51502 7.05696 9.23689 7.05776 8.89525L7.06494 6.085C7.06573 5.73452 6.78491 5.44996 6.43707 5.44916Z" fill="#FEF2F2"/>
<path d="M6.42959 9.60829H6.4264C6.23733 9.60829 6.05942 9.53273 5.92539 9.39768C5.79135 9.26264 5.71796 9.08257 5.71876 8.89206L5.72594 6.08181C5.72594 5.89049 5.80093 5.71123 5.93496 5.57699C6.06899 5.44275 6.2461 5.36879 6.43518 5.36879H6.43757C6.8285 5.3696 7.14602 5.69114 7.14522 6.08583L7.13804 8.89608C7.13724 9.28112 6.83727 9.59463 6.45513 9.60829C6.44635 9.60829 6.43757 9.60829 6.42959 9.60829ZM6.43518 5.52956C6.28918 5.52956 6.15116 5.58664 6.04745 5.69114C5.94294 5.79564 5.8855 5.9347 5.8855 6.08261L5.87832 8.89287C5.87832 9.04077 5.93496 9.17984 6.03867 9.28514C6.14239 9.39045 6.28041 9.44832 6.4272 9.44832C6.43438 9.44832 6.44236 9.44832 6.44954 9.44832C6.74552 9.43707 6.97768 9.19431 6.97848 8.89608L6.98566 6.08583C6.98566 5.78037 6.73994 5.53117 6.43678 5.53037L6.43518 5.52956Z" fill="#FEF2F2"/>
<path d="M3.46522 10.8865L1.06783 9.21852C0.781414 9.01916 0.389694 9.09151 0.19184 9.38009C-0.00601467 9.66867 0.0657874 10.0634 0.352198 10.2627L2.74959 11.9307C2.86607 12.0119 2.9993 12.0473 3.13014 12.0424C3.32161 12.0352 3.5083 11.9404 3.62558 11.7691C3.82343 11.4806 3.75163 11.0859 3.46522 10.8865Z" fill="#FEF2F2"/>
<path d="M3.10634 12.1236C2.96193 12.1236 2.82391 12.0802 2.70424 11.9966L0.306855 10.3287C-0.0146583 10.1044 -0.0960339 9.65824 0.126553 9.33429C0.234256 9.17754 0.396209 9.07143 0.582894 9.03767C0.76958 9.0031 0.957861 9.0441 1.11343 9.15262L3.51082 10.8206C3.83233 11.0449 3.91371 11.491 3.69112 11.815C3.56268 12.0023 3.35924 12.1148 3.13346 12.1228C3.12469 12.1228 3.11591 12.1236 3.10634 12.1236ZM0.710542 9.18638C0.677035 9.18638 0.643527 9.18959 0.610019 9.19522C0.465618 9.22175 0.340363 9.30374 0.256594 9.42512C0.084269 9.67672 0.147295 10.0224 0.396209 10.196L2.7936 11.864C2.89173 11.9323 3.00741 11.9661 3.12628 11.9621C3.3018 11.9556 3.45896 11.868 3.55869 11.7233C3.73101 11.4717 3.66799 11.1261 3.41907 10.9524L1.02168 9.28445C0.92914 9.22014 0.820639 9.18638 0.710542 9.18638Z" fill="#EC2E2E"/>
<path d="M2.78464 5.25162C2.61471 4.93008 2.2182 4.80789 1.89908 4.97911C1.57996 5.15033 1.4587 5.54984 1.62863 5.87138L3.62472 9.65108C3.74679 9.88178 3.98453 10.0096 4.22786 10.0008C4.3236 9.99754 4.42013 9.97181 4.51028 9.92358C4.8294 9.75236 4.95067 9.35285 4.78074 9.03131L2.78464 5.25162Z" fill="#FEF2F2"/>
<path d="M4.20303 10.0819C3.93337 10.0819 3.68047 9.92992 3.55362 9.68957L1.55752 5.90988C1.36764 5.54976 1.50327 5.10041 1.86068 4.90829C2.2181 4.71697 2.66407 4.85362 2.85474 5.21375L4.85084 8.99344C4.94338 9.16788 4.96253 9.36804 4.90509 9.55774C4.84765 9.74665 4.7208 9.90179 4.54768 9.99504C4.44875 10.0481 4.34184 10.077 4.23015 10.081C4.22137 10.081 4.2118 10.0819 4.20303 10.0819ZM2.20533 4.98224C2.11438 4.98224 2.02184 5.00394 1.93647 5.04976C1.65645 5.20008 1.55034 5.55136 1.69873 5.83351L3.69483 9.61321C3.79934 9.81096 4.00038 9.92993 4.22457 9.92028C4.31153 9.91706 4.3953 9.89456 4.47268 9.85276C4.60831 9.78041 4.70803 9.65822 4.75271 9.51032C4.79739 9.36241 4.78223 9.20566 4.71043 9.069L2.71433 5.28931C2.61141 5.09397 2.41196 4.98224 2.20533 4.98224Z" fill="#FEF2F2"/>
<path d="M10.5954 18.0841C10.5882 18.6564 10.7461 19.2239 11.0421 19.6998C10.8762 19.7135 10.7988 19.6805 10.7645 19.6556C10.727 19.6283 10.7238 19.5985 10.7238 19.5945V19.5857C10.4159 17.1701 9.5774 15.6356 8.92879 14.773C8.34719 14.0013 7.81107 13.6147 7.62598 13.4949C7.63875 12.7393 8.04562 12.0954 8.72216 11.7626C9.42981 11.4154 10.2515 11.4869 10.8156 11.9443C11.682 12.6469 12.3992 14.437 12.7016 15.2819C11.4713 15.6074 10.6113 16.7433 10.5946 18.0833L10.5954 18.0841Z" fill="#EC2E2E"/>
<path d="M9.35254 19.326C9.3661 20.0776 9.08368 20.592 8.51565 20.8541C8.49889 20.8613 8.48294 20.8686 8.46379 20.8766C8.44943 20.883 8.43427 20.8887 8.41592 20.8959C8.39997 20.9023 8.38401 20.9079 8.36805 20.9136L8.3521 20.9184C8.32737 20.9272 8.30263 20.9345 8.27631 20.9409C7.86704 21.0534 7.39793 21.0076 6.91925 20.8075C6.41344 20.5961 5.9212 20.2199 5.49597 19.7199C4.38464 18.4112 3.80065 16.5374 4.22029 15.6275C4.30486 15.4442 4.40538 15.2842 4.52186 15.1476C4.63834 15.0109 4.76997 14.8968 4.91677 14.8083C5.32524 14.5608 5.77441 14.5439 6.01534 14.535C6.30574 14.5238 6.53072 14.5977 6.63922 14.6428C6.64241 14.6436 6.64481 14.6452 6.6472 14.6452C7.14582 14.8558 7.80481 15.5599 8.36726 16.4812C8.97997 17.486 9.33898 18.5229 9.35334 19.3268L9.35254 19.326Z" fill="#EC2E2E"/>
<path d="M19.9456 25.604C19.6752 25.8596 19.3808 26.0984 19.072 26.3122C17.265 27.5606 15.2147 27.8274 13.8137 27.8315H13.6558V27.8331C12.6298 27.8162 10.5707 27.6297 8.81629 26.5212C8.8123 26.518 8.80831 26.5164 8.80512 26.5131C8.4485 26.2784 8.12699 26.026 7.83739 25.764C7.8334 25.7607 7.83021 25.7575 7.82702 25.7543C7.00289 25.0059 6.44044 24.1764 6.07026 23.4312C5.657 22.6008 5.43282 21.8701 5.3291 21.4698C6.44682 22.4553 8.03763 22.7905 8.96308 22.5212C8.98781 22.514 9.01175 22.506 9.03648 22.4979C10.0609 22.1507 10.5292 21.2134 10.6425 20.9505C11.181 20.895 11.6326 20.7914 11.9868 20.6402C12.3354 20.8605 12.7423 21.0261 13.1986 21.1322C14.2166 21.3685 15.6965 21.5325 16.9666 20.9682C16.9858 20.9602 17.0033 20.9513 17.0209 20.9433C17.0376 20.936 17.0528 20.9288 17.068 20.9216C17.0815 20.9159 17.0943 20.9103 17.1063 20.9031C17.1286 20.8926 17.1501 20.8814 17.1693 20.8709C17.1908 20.8605 17.2108 20.8492 17.2339 20.8372C17.2539 20.8259 17.2746 20.8147 17.2937 20.8042C17.3129 20.793 17.332 20.7825 17.3528 20.7705L17.3815 20.7528C17.4046 20.7383 17.427 20.7254 17.4493 20.711L17.4565 20.7069C17.4621 20.7029 17.4685 20.6997 17.4701 20.6981C17.4852 20.6893 17.4988 20.6796 17.5115 20.67C17.5427 20.6499 17.5714 20.629 17.5985 20.6097C17.6248 20.5912 17.6496 20.5727 17.6735 20.5542L17.715 20.5221V20.5172C17.8235 20.4143 17.9304 20.2777 17.8921 20.1571C17.861 20.0598 17.7748 20.0076 17.6671 20.0205L17.6504 20.0229C17.6504 20.0229 17.6448 20.0245 17.6424 20.0245L17.6177 20.0293C17.6121 20.0293 17.6065 20.0309 17.6025 20.0317C17.557 20.0406 17.5107 20.0486 17.4653 20.0566C17.3975 20.0679 17.3304 20.0791 17.2618 20.0888C17.2116 20.0976 17.1605 20.1041 17.1102 20.1105L17.1023 20.1121C17.0624 20.1169 17.0225 20.1226 16.9818 20.1274L16.9299 20.1338C16.8781 20.1394 16.8254 20.1451 16.7744 20.1499H16.7632C16.7161 20.1555 16.6707 20.1595 16.6228 20.1635C16.5661 20.1684 16.5111 20.1724 16.4529 20.1756C16.4377 20.1764 16.4217 20.178 16.4042 20.1788C16.3571 20.1812 16.3109 20.1836 16.2646 20.1853C14.8317 20.2391 13.647 19.9055 12.9282 19.2447C12.4048 18.7632 12.1719 18.1539 12.254 17.4819C12.2891 17.1957 12.4447 16.9506 12.7152 16.7536C14.1273 15.7247 18.1035 16.1692 20.0087 16.5478C20.9389 16.7327 21.6928 17.5856 22.0255 18.8292C22.0486 18.9144 22.0702 19.0044 22.0893 19.0993L22.1029 19.1684C22.5951 21.7592 21.8651 23.7905 19.9472 25.6064L19.9456 25.604Z" fill="#EC2E2E"/>
<path fill-rule="evenodd" clip-rule="evenodd" d="M13.0818 0.00086189C14.5062 -0.0256209 15.6429 0.386955 16.4285 1.25477C16.9326 1.81153 17.1859 2.62315 17.3171 3.36805C17.385 3.75305 17.4211 4.12895 17.4412 4.45594C17.5478 4.27608 17.6687 4.08856 17.7996 3.90321C18.1141 3.45777 18.4978 3.01117 18.9002 2.71083C19.9216 1.94795 21.5963 1.21107 23.7019 2.07899C24.8493 2.55162 25.6511 3.27627 26.0574 4.24012L26.0603 4.2411L26.0886 4.31239C26.4145 5.13481 26.3895 5.97867 26.2839 6.61708C26.1818 7.235 26.0019 7.67576 25.9724 7.74501L25.9666 7.75868V7.76161C25.7812 8.23465 24.8257 10.661 24.3494 11.7186C23.9046 12.7045 23.1588 15.1728 22.9744 15.7929C24.5751 18.0916 24.6026 20.3988 24.3386 21.9374C24.193 22.7823 23.9411 23.4472 23.7244 23.9042C23.5125 24.351 23.3189 24.6235 23.3289 24.6054L23.3279 24.6063V24.6083C23.3006 24.6547 23.2693 24.7073 23.2361 24.7655L23.1023 24.996C22.7543 25.5808 22.1356 26.4848 20.863 27.3085C19.6996 28.0616 18.399 28.5952 16.9968 28.8934C16.2799 29.0462 15.526 29.1383 14.7556 29.1669C13.6587 29.2076 12.5061 29.1216 11.3289 28.912C8.28301 28.3711 5.93539 26.8693 4.37083 24.4472C2.8943 22.1623 2.62727 19.9779 2.57591 19.2235C2.31998 18.5718 2.13515 17.8316 2.02415 17.0214L2.00266 16.8563C1.75272 14.8273 2.72865 13.6899 3.59251 13.1015C4.26056 12.6464 4.96713 12.4438 5.30052 12.3671C5.73566 10.9436 6.68984 10.2078 7.42552 9.84169L7.48216 9.81337C7.95224 9.5877 8.38981 9.47808 8.67942 9.42567C8.56666 8.32537 8.4891 6.86427 8.63548 5.42469C8.78999 3.90562 9.19685 2.37833 10.1033 1.3329C10.8498 0.471917 11.8571 0.0244466 13.0818 0.00086189ZM16.1707 16.3241C15.4733 16.3093 14.7969 16.3379 14.2117 16.4325C13.6225 16.5277 13.1456 16.6866 12.8298 16.9169C12.5961 17.0871 12.4771 17.2856 12.45 17.5067C12.3762 18.1108 12.5817 18.6562 13.0603 19.0966C13.7255 19.7072 14.8506 20.0371 16.2556 19.9843C16.3048 19.9817 16.3439 19.9805 16.3884 19.9774H16.4021C16.4049 19.9774 16.4088 19.9768 16.4148 19.9765C16.4181 19.9762 16.4212 19.9767 16.4255 19.9765L16.6033 19.9638H16.6072L16.6101 19.9628C16.6506 19.9607 16.6917 19.9565 16.7371 19.9511L16.7488 19.9501H16.7625C16.8089 19.9456 16.8563 19.9408 16.906 19.9354L16.9558 19.9286C17.003 19.923 17.0204 19.9208 17.0681 19.9149L17.075 19.913H17.0808C17.1396 19.9045 17.1785 19.8998 17.2263 19.8915H17.2293L17.2322 19.8905C17.265 19.8859 17.298 19.8811 17.3308 19.8759L17.4314 19.8593C17.4763 19.8513 17.5192 19.844 17.5613 19.8358C17.5622 19.8356 17.5645 19.8352 17.5662 19.8349C17.5688 19.8343 17.5734 19.8329 17.5789 19.8319L17.5994 19.828C17.6065 19.8264 17.6118 19.8261 17.6121 19.8261C17.6144 19.8256 17.6165 19.8253 17.6179 19.8251L17.6199 19.8241L17.6355 19.8222L17.6404 19.8212C17.7324 19.8096 17.8275 19.8249 17.9099 19.8749C17.9878 19.9221 18.0432 19.9941 18.074 20.078L18.0808 20.0956C18.1243 20.2328 18.0783 20.3586 18.03 20.4432C17.9971 20.5008 17.9549 20.5539 17.9129 20.5995V20.621L17.8347 20.6806L17.7927 20.7128C17.7671 20.7326 17.7401 20.7537 17.7107 20.7743C17.6878 20.7906 17.6572 20.8126 17.6248 20.8339C17.6086 20.8461 17.5919 20.8566 17.5798 20.8641C17.5749 20.8677 17.5698 20.8711 17.5652 20.8739L17.5603 20.8778L17.5515 20.8827C17.5291 20.8964 17.5072 20.9099 17.4851 20.9237L17.4558 20.9423L17.4539 20.9432L17.4519 20.9452C17.4373 20.9537 17.413 20.9677 17.3894 20.9804C17.3694 20.992 17.3456 21.0052 17.3308 21.0136L17.3279 21.0155L17.325 21.0165C17.3105 21.024 17.2814 21.0399 17.2576 21.0516L17.156 21.1024C17.1388 21.1114 17.1212 21.119 17.1033 21.1268L17.0525 21.1503L17.0476 21.1532C15.7181 21.7451 14.1846 21.5692 13.1541 21.33C12.717 21.2274 12.3186 21.072 11.9695 20.8661C11.6356 20.9949 11.2345 21.086 10.7761 21.1395C10.5965 21.5088 10.0935 22.3525 9.10032 22.6893L9.09739 22.6903C9.07514 22.6976 9.04662 22.7074 9.01829 22.7157C8.51111 22.8634 7.84346 22.8414 7.1677 22.662C6.67229 22.5305 6.16261 22.3117 5.69602 22.0028C5.81421 22.3576 5.98159 22.794 6.21165 23.2665L6.24974 23.3427C6.59907 24.0465 7.12386 24.8269 7.88645 25.538L7.96165 25.6063L7.96556 25.6093L7.96751 25.6122L7.97141 25.6161C8.25181 25.8705 8.5653 26.1153 8.91184 26.3436C8.91289 26.3443 8.91445 26.3458 8.91575 26.3466C8.91922 26.3487 8.92312 26.3514 8.92747 26.3544C10.5929 27.4048 12.5491 27.606 13.5837 27.6307H13.8142C15.1947 27.6267 17.1982 27.3627 18.9597 26.1464C19.2297 25.9599 19.4874 25.7547 19.7273 25.535L19.8074 25.4599C20.7487 24.5689 21.3899 23.6331 21.738 22.6122C22.0857 21.5923 22.1459 20.4732 21.905 19.2069L21.8914 19.1376C21.8734 19.0495 21.8523 18.963 21.8308 18.8817C21.509 17.6818 20.797 16.9099 19.9675 16.745C19.0237 16.5574 17.5652 16.3538 16.1707 16.3241ZM6.02415 14.7352C5.78173 14.7441 5.38094 14.7623 5.02024 14.9804C4.8927 15.0579 4.77689 15.157 4.67356 15.2782C4.58216 15.3855 4.50005 15.5114 4.42845 15.6552L4.40208 15.7128C4.22466 16.0986 4.24744 16.7338 4.47532 17.4647C4.69301 18.1628 5.08621 18.909 5.59934 19.5302L5.64915 19.5897C6.0577 20.0708 6.52528 20.4258 6.99681 20.6229C7.44496 20.8092 7.86792 20.8459 8.22532 20.747H8.22825L8.2302 20.746C8.25218 20.7404 8.27128 20.7353 8.28782 20.7294L8.2927 20.7274L8.29661 20.7265L8.30735 20.7235C8.32235 20.7182 8.33394 20.7141 8.34446 20.7099L8.35227 20.7059C8.36347 20.702 8.37393 20.6984 8.38548 20.6932L8.39036 20.6903L8.39622 20.6884C8.40955 20.6833 8.4223 20.6786 8.43528 20.6727C8.68333 20.5578 8.86172 20.3919 8.97923 20.1776C9.098 19.9608 9.1609 19.6812 9.15501 19.3309L9.15306 19.2587C9.1201 18.5127 8.78207 17.5432 8.19895 16.5868C7.92368 16.1355 7.62612 15.7404 7.33958 15.4345C7.05478 15.1304 6.79195 14.927 6.58177 14.8349L6.57786 14.8339L6.56419 14.828C6.49581 14.7997 6.36883 14.7559 6.20286 14.7401L6.02415 14.7352ZM10.6912 12.1015C10.1984 11.7021 9.47061 11.6287 8.82981 11.9354L8.80931 11.9452C8.23249 12.2283 7.87569 12.7595 7.82981 13.3925C8.08058 13.5693 8.56801 13.9628 9.08763 14.6522V14.6532C9.53756 15.2516 10.0715 16.1569 10.4675 17.4335C10.6934 16.3703 11.4331 15.501 12.4421 15.1522C12.2895 14.7423 12.0666 14.1907 11.7937 13.6532C11.4704 13.0164 11.0897 12.425 10.6912 12.1015ZM13.4617 2.31141C13.0415 2.34748 12.4463 2.53842 12.0037 3.27626L11.8845 3.49501C11.6227 4.02868 11.4689 4.73024 11.4353 5.60145V5.60829C11.4352 5.61009 11.4344 5.6112 11.4343 5.61219V5.63758C11.4343 5.64061 11.4334 5.64449 11.4334 5.65126V5.65809C11.4192 6.05032 11.3498 8.39408 11.5837 10.5429C11.5858 10.5445 11.5876 10.547 11.5896 10.5487C11.6267 10.5795 11.6746 10.6198 11.7087 10.6513C11.9628 10.8779 13.4604 12.2939 14.2351 14.8241C14.772 14.7614 15.3381 14.7182 15.9207 14.6962C17.5571 14.6355 19.0787 14.745 20.0466 14.8788C20.6358 13.5278 22.7051 8.80579 23.3269 7.64247L23.3611 7.57801C23.6151 7.08844 23.7763 6.61529 23.8435 6.19423C23.9139 5.75294 23.8792 5.38242 23.7546 5.10829C23.5902 4.74763 23.2499 4.48912 22.6921 4.36415C21.8022 4.16544 21.0217 4.42035 20.3347 5.1493C19.6371 5.88958 19.0371 7.12015 18.5535 8.86219C18.4227 9.33695 18.3036 9.77267 18.1951 10.1698C17.8263 11.5234 17.57 12.4664 17.3074 13.0653C17.1756 13.3657 17.0335 13.6013 16.8582 13.7606C16.6746 13.9273 16.4639 14.0027 16.2224 13.997H16.2195C15.9939 13.9885 15.8446 13.8261 15.7459 13.6298C15.6467 13.4326 15.5706 13.1511 15.5076 12.7919C15.4006 12.1871 15.3239 11.3052 15.2771 10.1737L15.2683 9.94423C15.1963 7.99181 15.2248 5.7762 15.2625 4.76063C15.2972 3.81935 15.0645 3.12295 14.6336 2.7079C14.3258 2.41185 13.9247 2.27253 13.4617 2.31141Z" fill="#FEF2F2"/>
<path d="M23.5017 7.73786C22.8611 8.9364 20.66 13.9685 20.1677 15.0987C19.2239 14.9572 17.6395 14.8334 15.9274 14.8969C15.2892 14.9211 14.6725 14.9701 14.0925 15.0432C13.3481 12.4605 11.8203 11.0192 11.5762 10.8013C11.5164 10.7459 11.3935 10.647 11.3935 10.647C11.147 8.46052 11.2196 6.04978 11.2339 5.65107C11.2339 5.63821 11.2339 5.62776 11.2347 5.61891C11.2347 5.61088 11.2347 5.60203 11.2355 5.594C11.2746 4.57873 11.4741 3.76685 11.8323 3.172C12.315 2.36735 12.9755 2.15111 13.4447 2.11092C13.9608 2.06751 14.4188 2.22426 14.7706 2.56268C15.2581 3.03213 15.4974 3.79418 15.4615 4.76764C15.424 5.77888 15.3953 7.98946 15.4671 9.93638C15.5126 11.1767 15.5923 12.1261 15.704 12.7571C15.8285 13.4661 15.9896 13.7868 16.2266 13.7957C16.9957 13.8142 17.2605 12.8399 18.0025 10.1165C18.111 9.71934 18.2299 9.28366 18.3607 8.80858C19.3348 5.29898 20.806 3.73711 22.735 4.16797C23.3342 4.30221 23.7379 4.58999 23.9357 5.02407C24.2285 5.66795 24.0658 6.6816 23.5017 7.73786Z" fill="#EC2E2E"/>
<path d="M11.2371 5.59398C11.2371 5.59398 11.2371 5.60476 11.2363 5.6197C11.2363 5.6114 11.2363 5.60227 11.2371 5.59398Z" fill="#FEF2F2"/>
</g>
<mask id="mask1_759_347" style="mask-type:luminance" maskUnits="userSpaceOnUse" x="35" y="6" width="109" height="22">
<path d="M143.663 6.11765H35.4326V27.3771H143.663V6.11765Z" fill="white"/>
</mask>
<g mask="url(#mask1_759_347)">
<path d="M41.0952 21.12L39.6532 20.8518L39.6515 20.7635C39.6497 20.6877 39.6489 20.6118 39.648 20.5359C39.641 20.0311 39.6332 19.5255 39.6262 19.0207C39.6193 18.5328 39.6158 18.0368 39.6158 17.5056V9.43226L39.701 6.35875C39.701 6.34287 39.6932 6.32787 39.6802 6.31992L39.3601 6.12402C39.3506 6.11785 39.3384 6.11608 39.3271 6.11873L35.8474 6.99675C35.6031 7.05852 35.4326 7.28001 35.4326 7.53503C35.4326 7.81035 35.6352 8.04684 35.9048 8.08478L36.9902 8.23568V17.5056C36.9902 17.9962 36.9867 18.5054 36.9798 19.0207C36.9737 19.4408 36.9676 19.8599 36.9615 20.2791L36.958 20.5359C36.958 20.5985 36.9554 20.6603 36.9546 20.723C36.9537 20.7635 36.9528 20.8033 36.952 20.8438L35.5326 21.1209C35.5117 21.1253 35.497 21.143 35.497 21.1642V22.0519C35.497 22.0766 35.5161 22.096 35.5404 22.096H41.0873C41.1117 22.096 41.1308 22.0766 41.1308 22.0519V21.1642C41.1308 21.143 41.116 21.1236 41.0952 21.12Z" fill="white"/>
<path d="M52.7301 21.0405L51.8622 20.8676V14.6482L51.9265 11.7477C51.9265 11.7344 51.9213 11.7212 51.9109 11.7132L51.6334 11.475C51.6239 11.467 51.6117 11.4635 51.5995 11.4653L48.3764 11.9074C48.1242 11.9418 47.9346 12.1624 47.9346 12.4201C47.9346 12.6777 48.1068 12.8789 48.3434 12.9275L49.3001 13.1242L49.22 19.2986C49.0731 19.4398 48.9191 19.5748 48.7626 19.6992C48.4391 19.956 48.1086 20.1581 47.7807 20.2993C47.4537 20.4405 47.1328 20.512 46.8267 20.512C46.3596 20.512 46.0013 20.354 45.7622 20.0416C45.5204 19.7266 45.3978 19.1636 45.3978 18.3694V14.6482L45.5047 11.7477C45.5047 11.7344 45.5004 11.7221 45.4908 11.7132L45.2351 11.475C45.2256 11.4662 45.2125 11.4617 45.2003 11.4635L41.9216 11.865C41.6529 11.8977 41.4502 12.1297 41.4502 12.4042C41.4502 12.6574 41.6268 12.8807 41.8712 12.9354L42.8322 13.1498L42.773 18.4559C42.7583 19.8898 43.0174 20.9152 43.5418 21.5056C44.0671 22.0968 44.7916 22.3968 45.6969 22.3968C46.2127 22.3968 46.7162 22.2971 47.1963 22.1012C47.6746 21.9053 48.1382 21.6079 48.5739 21.217C48.82 20.9955 49.0592 20.7414 49.2853 20.459L49.4514 22.2486C49.4531 22.2724 49.4723 22.2901 49.4966 22.2883L52.6553 22.1189C52.9406 22.1039 53.1641 21.8647 53.1641 21.5744C53.1641 21.3141 52.9815 21.09 52.7301 21.0405Z" fill="white"/>
<path d="M61.074 11.7397C60.5018 11.4714 59.8565 11.3355 59.1572 11.3355C58.1875 11.3355 57.29 11.5597 56.4908 12.0009C55.6907 12.443 55.0462 13.0898 54.5748 13.9228C54.1035 14.7558 53.8652 15.7795 53.8652 16.9646C53.8652 18.1497 54.0782 19.0718 54.4992 19.8748C54.9201 20.6796 55.5254 21.3079 56.2977 21.7438C57.0691 22.178 57.9945 22.3986 59.0494 22.3986C59.7347 22.3986 60.3426 22.2997 60.8566 22.1038C61.3723 21.9079 61.8289 21.6167 62.2151 21.2391C62.5168 20.9443 62.7873 20.5958 63.0195 20.2031C63.143 19.9939 63.0995 19.731 62.9152 19.5774C62.7238 19.4177 62.4481 19.4336 62.2733 19.6136C62.089 19.8042 61.8968 19.9631 61.7028 20.0884C61.4167 20.2728 61.1123 20.406 60.7983 20.4837C60.4835 20.5613 60.153 20.6011 59.8165 20.6011C59.2294 20.6011 58.6876 20.4572 58.2058 20.174C57.724 19.8907 57.3352 19.453 57.0491 18.8715C56.7621 18.2891 56.616 17.524 56.616 16.5966C56.616 15.6691 56.7473 14.8882 57.0074 14.2758C57.2657 13.666 57.6161 13.2098 58.0475 12.9204C58.4789 12.6309 58.952 12.4836 59.4529 12.4836C59.693 12.4836 59.9495 12.5065 60.213 12.5533L60.4757 13.8081C60.5331 14.3358 60.6879 14.7302 60.9366 14.9817C61.1854 15.2341 61.5115 15.3629 61.9063 15.3629C62.2429 15.3629 62.5142 15.2791 62.7125 15.115C62.9108 14.9509 63.0561 14.6958 63.143 14.3561C63.1448 14.3508 63.1448 14.3446 63.1439 14.3393C63.0717 13.7852 62.8499 13.2751 62.4838 12.8233C62.1185 12.3733 61.6437 12.0088 61.0714 11.7397H61.074Z" fill="white"/>
<path d="M75.2026 21.5604C75.2026 21.3097 75.0278 21.09 74.786 21.0371L73.7998 20.8218L70.5359 15.026L72.6518 12.9214L74.1981 12.6955C74.4538 12.6584 74.6469 12.4316 74.6469 12.1695C74.6469 11.8766 74.4121 11.6383 74.1233 11.6383H70.0401C69.7444 11.6383 69.5035 11.8827 69.5035 12.1828C69.5035 12.4404 69.6844 12.6655 69.934 12.7158L71.0464 12.9434L69.3244 14.703L67.6285 16.4608V9.43223L67.7137 6.35872C67.7137 6.34284 67.7059 6.32785 67.6928 6.3199L67.3728 6.12488C67.3632 6.1187 67.3511 6.11693 67.3397 6.11958L63.8601 6.99761C63.6157 7.05938 63.4453 7.28087 63.4453 7.53589C63.4453 7.81121 63.6479 8.0477 63.9175 8.08565L65.0029 8.23653V18.6316C65.0029 19.0269 64.9994 19.4381 64.9925 19.8537L64.9751 20.8394L63.9332 21.045C63.6879 21.0936 63.5096 21.3124 63.5096 21.5657C63.5096 21.8586 63.7444 22.096 64.0323 22.096H68.6008C68.8878 22.096 69.1217 21.8586 69.1217 21.5674C69.1217 21.3124 68.9426 21.0944 68.6956 21.0477L67.6572 20.8527C67.6511 20.5226 67.645 20.1829 67.6389 19.8326C67.632 19.4408 67.6285 19.026 67.6285 18.5998V17.9195L68.7069 16.8473L71.5369 22.0739C71.5447 22.0881 71.5595 22.0969 71.5751 22.0969H74.6756C74.9661 22.0969 75.2026 21.8569 75.2026 21.5621V21.5604Z" fill="white"/>
<path d="M85.4011 11.6373H82.2329C81.9546 11.6373 81.7293 11.8667 81.7293 12.1482C81.7293 12.4006 81.9076 12.6132 82.1537 12.6529L83.3434 12.8453L81.0622 19.3268L78.7132 12.8277L79.9569 12.6476C80.2021 12.6123 80.3865 12.3961 80.3865 12.1447C80.3865 11.8649 80.1621 11.6373 79.8864 11.6373H75.2353C74.957 11.6373 74.7318 11.8667 74.7318 12.1482C74.7318 12.4006 74.9101 12.6132 75.1562 12.6529L75.8276 12.7615L79.8743 22.7373L79.8325 22.8574C79.6638 23.3568 79.4533 23.8351 79.2063 24.279C78.9602 24.7211 78.6715 25.1226 78.3488 25.472C78.2984 25.5267 78.2427 25.5832 78.1801 25.6441L78.0723 25.5064C77.7844 25.1561 77.4957 24.9152 77.2139 24.7908C76.933 24.6663 76.6434 24.6028 76.3537 24.6028C75.9772 24.6028 75.6284 24.6999 75.3179 24.8905C75.0031 25.0828 74.7987 25.3838 74.7109 25.7844C74.7109 25.7879 74.71 25.7923 74.71 25.7959C74.7248 26.0924 74.8318 26.3668 75.0292 26.6121C75.2249 26.8548 75.4858 27.0454 75.8041 27.1769C76.1207 27.3083 76.4703 27.3745 76.8443 27.3745C77.4617 27.3745 78.0201 27.1936 78.5019 26.8354C78.9811 26.4797 79.4298 25.9282 79.8369 25.1976C80.2404 24.4713 80.6544 23.5404 81.0666 22.432L84.6958 12.8188L85.4977 12.6626C85.7377 12.6159 85.9116 12.4014 85.9116 12.1535C85.9116 11.8676 85.6829 11.6355 85.4011 11.6355V11.6373Z" fill="white"/>
<path d="M99.6408 11.9806C99.0172 11.5517 98.3023 11.3347 97.5152 11.3347C97.0569 11.3347 96.6108 11.4159 96.1881 11.5756C95.7663 11.7353 95.3497 11.9744 94.9497 12.285C94.7583 12.4342 94.5653 12.6107 94.3765 12.8092L94.273 11.5906C94.2722 11.5765 94.2643 11.5641 94.253 11.557L93.9121 11.3408C93.9008 11.3338 93.886 11.332 93.8739 11.3373L90.6551 12.5965C90.4455 12.6786 90.3047 12.8869 90.3047 13.1145C90.3047 13.3934 90.5099 13.6299 90.783 13.6652L91.8214 13.7984C91.8344 14.0693 91.8449 14.3261 91.8518 14.5617C91.8588 14.807 91.8657 15.0673 91.8736 15.3409C91.8805 15.6189 91.884 15.9613 91.884 16.3575V22.3968C91.884 22.8751 91.8805 23.3772 91.8736 23.8899C91.8666 24.3946 91.8597 24.9144 91.8518 25.4483C91.8501 25.5992 91.8475 25.7518 91.8449 25.9062L90.7934 26.1092C90.5473 26.1569 90.369 26.3757 90.369 26.6298C90.369 26.9219 90.603 27.1593 90.8908 27.1593H95.6515C95.9394 27.1593 96.1733 26.9219 96.1733 26.6298C96.1733 26.3757 95.995 26.1569 95.7489 26.1092L94.4835 25.8648C94.4809 25.7209 94.4792 25.578 94.4774 25.4368L94.4557 23.8564C94.4487 23.3587 94.4452 22.8601 94.4452 22.3739V21.1799C94.5548 21.3008 94.667 21.4111 94.7783 21.5082C95.1358 21.8206 95.5176 22.0491 95.9124 22.1877C96.3064 22.3253 96.7317 22.3959 97.1743 22.3959C98.0031 22.3959 98.7685 22.1674 99.4486 21.7182C100.128 21.2682 100.678 20.6178 101.085 19.7848C101.491 18.9527 101.697 17.96 101.697 16.8322C101.697 15.7045 101.51 14.6588 101.139 13.8478C100.767 13.036 100.263 12.4077 99.6416 11.9788L99.6408 11.9806ZM98.5632 19.1336C98.3397 19.7001 98.0362 20.1237 97.6614 20.3911C97.2865 20.6584 96.8578 20.7943 96.3846 20.7943C95.8698 20.7943 95.3871 20.6328 94.9488 20.3152C94.8096 20.2146 94.6618 20.091 94.5079 19.949V13.9008L94.5166 13.8928C94.5261 13.8849 94.5348 13.8769 94.5444 13.8699C94.8879 13.5919 95.2332 13.3678 95.5706 13.2045C95.9046 13.0422 96.229 12.9601 96.5334 12.9601C97.2256 12.9601 97.7988 13.2919 98.2362 13.9475C98.6772 14.6085 98.9007 15.6153 98.9007 16.9425C98.9007 17.8276 98.7867 18.5644 98.5624 19.1345L98.5632 19.1336Z" fill="white"/>
<path d="M113.929 21.0415L113.038 20.8588L113.037 20.7521C113.03 20.2182 113.023 19.6587 113.015 19.0746C113.008 18.5063 113.005 17.9786 113.005 17.5056V15.2545C113.005 13.9088 112.75 12.909 112.248 12.2825C111.744 11.6542 111.007 11.3356 110.059 11.3356C109.572 11.3356 109.09 11.4239 108.625 11.5977C108.16 11.7716 107.704 12.0363 107.269 12.384C106.985 12.6099 106.705 12.879 106.432 13.1834V9.43223L106.518 6.35872C106.518 6.34284 106.51 6.32785 106.497 6.3199L106.177 6.12488C106.167 6.1187 106.155 6.11693 106.144 6.11958L102.727 6.99585C102.483 7.0585 102.313 7.27999 102.313 7.53413C102.313 7.81033 102.517 8.04681 102.787 8.08475L103.871 8.23565V17.5056C103.871 17.9424 103.868 18.4489 103.861 19.0525L103.838 20.8474L102.864 21.0433C102.62 21.0927 102.442 21.3115 102.442 21.5648C102.442 21.8577 102.677 22.096 102.966 22.096H107.275C107.564 22.096 107.799 21.8577 107.799 21.5621C107.799 21.3106 107.622 21.0918 107.379 21.0415L106.531 20.8659L106.529 20.7415C106.522 20.2005 106.514 19.6375 106.507 19.0534C106.5 18.4966 106.497 17.9759 106.497 17.5065V14.4647C106.705 14.2627 106.911 14.0853 107.108 13.9379C107.423 13.7041 107.739 13.5276 108.046 13.4138C108.353 13.3008 108.657 13.2435 108.949 13.2435C109.472 13.2435 109.844 13.4005 110.055 13.7111C110.269 14.0271 110.377 14.6192 110.377 15.4725V17.5074C110.377 17.9645 110.374 18.4921 110.367 19.0763C110.36 19.6605 110.352 20.2199 110.345 20.7538L110.343 20.8553L109.411 21.0441C109.167 21.0936 108.99 21.3124 108.99 21.5657C108.99 21.8586 109.225 22.0969 109.514 22.0969H113.823C114.112 22.0969 114.346 21.8586 114.346 21.5639C114.346 21.3124 114.17 21.0927 113.926 21.0433L113.929 21.0415Z" fill="white"/>
<path d="M122.924 11.9894C122.139 11.5553 121.278 11.3347 120.365 11.3347C119.451 11.3347 118.59 11.5553 117.805 11.9894C117.019 12.4245 116.379 13.0633 115.901 13.8893C115.422 14.7144 115.18 15.7195 115.18 16.8772C115.18 18.035 115.411 19.018 115.867 19.8431C116.324 20.669 116.955 21.3088 117.741 21.7438C118.526 22.178 119.409 22.3986 120.365 22.3986C121.32 22.3986 122.199 22.1815 122.977 21.7544C123.756 21.3273 124.386 20.6911 124.85 19.8651C125.314 19.0392 125.55 18.0341 125.55 16.8772C125.55 15.7203 125.307 14.6967 124.829 13.8778C124.35 13.0589 123.709 12.4236 122.924 11.9894ZM122.424 19.3542C122.235 19.9922 121.967 20.4775 121.626 20.7952C121.287 21.1111 120.862 21.2708 120.365 21.2708C119.867 21.2708 119.438 21.1111 119.092 20.7952C118.744 20.4775 118.48 19.9931 118.305 19.3551C118.13 18.7135 118.04 17.8867 118.04 16.8993C118.04 15.9118 118.13 15.0594 118.305 14.4108C118.48 13.7658 118.744 13.2769 119.092 12.9601C119.438 12.6442 119.865 12.4845 120.365 12.4845C120.864 12.4845 121.287 12.6442 121.626 12.9601C121.967 13.2778 122.235 13.7666 122.424 14.4126C122.614 15.0621 122.71 15.8995 122.71 16.9002C122.71 17.9008 122.614 18.7118 122.424 19.3542Z" fill="white"/>
<path d="M132.809 20.6197C132.651 20.4529 132.404 20.422 132.208 20.5447C132.081 20.6241 131.959 20.6912 131.846 20.7441C131.654 20.835 131.444 20.8809 131.224 20.8809C130.897 20.8809 130.632 20.7626 130.436 20.5279C130.238 20.2923 130.137 19.9085 130.137 19.3878V13.0246H132.057C132.433 13.0246 132.74 12.7131 132.74 12.331C132.74 11.9489 132.433 11.6374 132.057 11.6374H130.152L130.244 8.69541C130.244 8.68306 130.24 8.67158 130.232 8.66364C130.224 8.65482 130.213 8.65041 130.201 8.65041H128.494C128.474 8.65041 128.458 8.66364 128.453 8.68306L127.66 11.618L126.457 11.7698C126.146 11.8086 125.912 12.0778 125.912 12.3954C125.912 12.7431 126.191 13.0255 126.533 13.0255H127.491V17.6353C127.491 18.0509 127.487 18.411 127.48 18.7057C127.473 18.9943 127.47 19.304 127.47 19.627C127.47 20.5879 127.723 21.2992 128.221 21.7386C128.718 22.1763 129.399 22.3987 130.244 22.3987C130.687 22.3987 131.09 22.3431 131.441 22.2345C131.793 22.1251 132.11 21.9592 132.383 21.7404C132.556 21.601 132.714 21.443 132.852 21.2692C133.001 21.083 132.987 20.8094 132.82 20.6329L132.81 20.6215L132.809 20.6197Z" fill="white"/>
<path d="M142.942 13.8778C142.464 13.0589 141.823 12.4236 141.037 11.9894C140.252 11.5553 139.391 11.3347 138.478 11.3347C137.565 11.3347 136.703 11.5553 135.918 11.9894C135.132 12.4245 134.492 13.0633 134.014 13.8893C133.535 14.7144 133.293 15.7195 133.293 16.8772C133.293 18.035 133.524 19.018 133.981 19.8431C134.437 20.669 135.068 21.3088 135.854 21.7438C136.639 22.178 137.521 22.3986 138.478 22.3986C139.435 22.3986 140.312 22.1815 141.09 21.7544C141.869 21.3273 142.499 20.6911 142.964 19.8651C143.427 19.0392 143.663 18.0341 143.663 16.8772C143.663 15.7203 143.42 14.6958 142.942 13.8778ZM140.537 19.3542C140.349 19.9931 140.08 20.4775 139.739 20.7952C139.4 21.1111 138.975 21.2708 138.478 21.2708C137.98 21.2708 137.551 21.1111 137.206 20.7952C136.858 20.4775 136.593 19.9931 136.419 19.3551C136.243 18.7135 136.153 17.8867 136.153 16.8993C136.153 15.9118 136.243 15.0603 136.419 14.4108C136.593 13.7658 136.858 13.2769 137.206 12.9601C137.551 12.6442 137.979 12.4845 138.478 12.4845C138.977 12.4845 139.401 12.6442 139.739 12.9601C140.08 13.2778 140.349 13.7666 140.537 14.4126C140.727 15.0621 140.823 15.8995 140.823 16.9002C140.823 17.9008 140.727 18.7118 140.537 19.3542Z" fill="white"/>
</g>
</svg>
