<svg preserveAspectRatio="none" width="100%" height="100%" overflow="visible" style="display: block;" viewBox="0 0 26 26" fill="none" xmlns="http://www.w3.org/2000/svg">
<g id="_&#229;&#155;&#190;&#229;&#177;&#130;_1" opacity="0.6">
<path id="Vector" d="M7.111 14.17C6.955 14.352 6.721 14.443 6.487 14.443C6.292 14.443 6.084 14.378 5.928 14.222C4.81 13.208 4.173 11.713 4.173 10.127C4.173 9.061 4.459 8.034 4.992 7.137C5.239 6.747 5.759 6.617 6.162 6.864C6.552 7.098 6.682 7.618 6.435 8.021C6.058 8.645 5.863 9.373 5.863 10.127C5.863 11.232 6.292 12.285 7.059 12.974C7.41 13.299 7.436 13.832 7.111 14.17Z" fill="var(--fill-0, #CCCBCE)"/>
<path id="Vector_2" d="M14.3 6.253C13.143 4.368 11.219 3.237 9.165 3.237C5.746 3.237 2.964 6.331 2.964 10.127C2.964 13.351 5.031 16.185 7.878 16.848C8.658 17.03 9.451 17.043 10.075 16.926C11.232 16.731 12.259 16.224 13.13 15.405C14.547 14.105 15.366 12.181 15.366 10.127C15.366 8.736 14.989 7.397 14.3 6.253ZM7.111 14.17C6.955 14.352 6.721 14.443 6.487 14.443C6.292 14.443 6.084 14.378 5.928 14.222C4.81 13.208 4.173 11.713 4.173 10.127C4.173 9.061 4.459 8.034 4.992 7.137C5.239 6.747 5.759 6.617 6.162 6.864C6.552 7.098 6.682 7.618 6.435 8.021C6.058 8.645 5.863 9.373 5.863 10.127C5.863 11.232 6.292 12.285 7.059 12.974C7.41 13.299 7.436 13.832 7.111 14.17Z" fill="var(--fill-0, #E8E8E8)"/>
<path id="Vector_3" d="M7.111 14.17C6.955 14.352 6.721 14.443 6.487 14.443C6.292 14.443 6.084 14.378 5.928 14.222C4.81 13.208 4.173 11.713 4.173 10.127C4.173 9.061 4.459 8.034 4.992 7.137C5.239 6.747 5.759 6.617 6.162 6.864C6.552 7.098 6.682 7.618 6.435 8.021C6.058 8.645 5.863 9.373 5.863 10.127C5.863 11.232 6.292 12.285 7.059 12.974C7.41 13.299 7.436 13.832 7.111 14.17Z" fill="var(--fill-0, #CCCBCE)"/>
<path id="Vector_4" d="M24.921 11.492C24.921 7.397 21.84 4.056 18.057 4.056C17.55 4.056 17.043 4.121 16.549 4.251C16.653 4.394 16.757 4.537 16.848 4.693C17.069 5.044 17.264 5.421 17.42 5.798C17.628 5.759 17.836 5.746 18.057 5.746C20.904 5.746 23.231 8.32 23.231 11.492C23.231 14.326 21.411 16.705 18.876 17.173C18.421 17.277 17.693 17.277 17.238 17.173C17.225 17.173 17.199 17.16 17.186 17.16C16.77 17.082 16.354 16.952 15.964 16.757C15.717 17.056 15.444 17.342 15.158 17.602C15.015 17.745 14.859 17.875 14.703 17.992C15.119 18.252 15.548 18.447 16.003 18.59L15.561 20.215C15.496 20.462 15.548 20.735 15.704 20.943C15.873 21.164 16.12 21.281 16.38 21.281H17.212V22.958C17.212 23.426 17.589 23.803 18.057 23.803C18.525 23.803 18.902 23.426 18.902 22.958V21.281H19.734C19.994 21.281 20.241 21.164 20.41 20.943C20.566 20.735 20.618 20.475 20.553 20.215L20.111 18.59C22.945 17.654 24.921 14.794 24.921 11.492ZM17.667 18.928C17.914 18.941 18.2 18.941 18.447 18.928L18.629 19.591H17.485L17.667 18.928Z" fill="var(--fill-0, #CCCBCE)"/>
<path id="Vector_5" d="M23.231 11.492C23.231 14.326 21.411 16.705 18.876 17.173C18.421 17.277 17.693 17.277 17.238 17.173C17.225 17.173 17.199 17.16 17.186 17.16C16.77 17.082 16.354 16.952 15.964 16.757C17.498 14.963 18.356 12.61 18.356 10.127C18.356 8.619 18.044 7.137 17.42 5.798C17.628 5.759 17.836 5.746 18.057 5.746C20.904 5.746 23.231 8.32 23.231 11.492Z" fill="var(--fill-0, #E8E8E8)"/>
<path id="Vector_6" d="M9.893 19.747H7.995L8.125 19.266L8.294 18.642C8.736 18.694 9.191 18.707 9.607 18.681L9.776 19.318L9.893 19.747Z" fill="var(--fill-0, #E8E8E8)"/>
<path id="Vector_7" d="M17.03 9.49C17.017 9.282 17.004 9.074 16.965 8.866C16.952 8.723 16.926 8.58 16.9 8.437C16.887 8.411 16.887 8.385 16.874 8.359C16.848 8.216 16.822 8.073 16.783 7.93C16.731 7.696 16.666 7.462 16.588 7.228C16.549 7.085 16.497 6.942 16.432 6.799C16.354 6.578 16.263 6.357 16.159 6.149C16.146 6.123 16.133 6.084 16.107 6.058C15.99 5.811 15.873 5.59 15.73 5.369C15.587 5.135 15.444 4.914 15.288 4.706L15.262 4.68C15.132 4.498 15.002 4.329 14.846 4.173C14.846 4.147 14.82 4.134 14.807 4.121C14.729 4.03 14.651 3.952 14.573 3.861C14.443 3.731 14.3 3.601 14.157 3.484C14.092 3.419 14.014 3.354 13.936 3.289C13.741 3.12 13.546 2.977 13.325 2.834C13.325 2.834 13.325 2.821 13.312 2.821C13.104 2.678 12.883 2.548 12.649 2.431C12.571 2.379 12.506 2.353 12.428 2.314C12.298 2.249 12.155 2.184 12.025 2.132C11.869 2.067 11.726 2.002 11.57 1.95C11.414 1.898 11.258 1.859 11.102 1.807C10.478 1.638 9.828 1.547 9.165 1.547C4.81 1.547 1.274 5.395 1.274 10.127C1.274 10.907 1.378 11.661 1.56 12.389C1.612 12.597 1.664 12.805 1.742 13.013C2.041 13.91 2.47 14.755 3.029 15.496C3.159 15.665 3.289 15.821 3.419 15.977C3.887 16.523 4.42 17.004 5.005 17.394C5.187 17.524 5.382 17.641 5.577 17.745C5.928 17.94 6.279 18.109 6.656 18.239L6.474 18.863L6.305 19.5L6.071 20.371C6.006 20.631 6.071 20.891 6.214 21.112C6.383 21.32 6.63 21.437 6.89 21.437H8.099V23.673C8.099 24.141 8.476 24.518 8.944 24.518C9.412 24.518 9.789 24.141 9.789 23.673V21.437H10.998C11.258 21.437 11.505 21.32 11.674 21.112C11.83 20.891 11.882 20.631 11.817 20.371L11.622 19.63L11.44 18.993L11.271 18.369C11.44 18.317 11.609 18.265 11.778 18.2C12.038 18.109 12.311 17.992 12.558 17.862C12.727 17.771 12.896 17.68 13.065 17.576C13.091 17.563 13.117 17.55 13.143 17.524C13.312 17.42 13.481 17.303 13.637 17.173C13.754 17.095 13.858 17.017 13.962 16.926C14.066 16.835 14.17 16.757 14.274 16.653C14.495 16.458 14.69 16.25 14.885 16.029C14.911 15.99 14.95 15.964 14.976 15.925C15.145 15.73 15.301 15.522 15.444 15.314C15.47 15.275 15.496 15.249 15.509 15.21C15.522 15.184 15.535 15.171 15.548 15.145C15.678 14.976 15.795 14.794 15.886 14.612C15.925 14.56 15.964 14.495 15.977 14.43C15.99 14.404 16.003 14.391 16.016 14.365C16.12 14.183 16.211 13.988 16.302 13.793C16.315 13.754 16.341 13.715 16.354 13.663C16.445 13.455 16.523 13.234 16.588 13.013C16.64 12.857 16.692 12.701 16.731 12.545C16.757 12.493 16.77 12.428 16.783 12.363C16.783 12.324 16.809 12.272 16.809 12.233C16.835 12.103 16.874 11.986 16.887 11.856C16.939 11.609 16.978 11.362 17.004 11.102V11.063C17.043 10.764 17.056 10.439 17.056 10.127C17.056 9.919 17.043 9.698 17.03 9.49ZM7.995 19.747L8.125 19.266L8.294 18.642C8.736 18.694 9.191 18.707 9.607 18.681L9.776 19.318L9.893 19.747H7.995ZM13.13 15.405C12.259 16.224 11.232 16.731 10.075 16.926C9.451 17.043 8.658 17.03 7.878 16.848C5.031 16.185 2.964 13.351 2.964 10.127C2.964 6.331 5.746 3.237 9.165 3.237C11.219 3.237 13.143 4.368 14.3 6.253C14.989 7.397 15.366 8.736 15.366 10.127C15.366 12.181 14.547 14.105 13.13 15.405Z" fill="var(--fill-0, #CCCBCE)"/>
<path id="Vector_8" d="M18.629 19.591H17.485L17.667 18.928C17.914 18.941 18.2 18.941 18.447 18.928L18.629 19.591Z" fill="var(--fill-0, #E8E8E8)"/>
</g>
</svg>
