<svg preserveAspectRatio="none" width="100%" height="100%" overflow="visible" style="display: block;" viewBox="0 0 26 26" fill="none" xmlns="http://www.w3.org/2000/svg">
<g id="_&#229;&#155;&#190;&#229;&#177;&#130;_1" opacity="0.6">
<path id="Vector" d="M25.766 10.504C24.921 8.866 23.868 7.501 22.867 6.409C21.866 5.33 20.904 4.524 20.241 4.017C19.552 3.497 18.733 3.185 17.849 3.107L16.939 3.016C16.458 2.977 16.029 3.328 15.99 3.809C15.834 5.343 14.547 6.513 13 6.513C11.453 6.513 10.166 5.343 10.01 3.809C9.971 3.328 9.529 2.977 9.061 3.016L8.151 3.107C7.267 3.185 6.448 3.497 5.759 4.017C4.42 5.031 1.924 7.228 0.221 10.504C0.169 10.621 0.13 10.751 0.13 10.894C0.104 12.116 0.897 14.573 3.991 15.548C4.069 16.783 4.29 19.513 4.771 21.58C4.836 21.879 5.057 22.113 5.343 22.204C7.8 23.049 10.374 23.478 13 23.478C15.626 23.478 18.2 23.049 20.657 22.204C20.943 22.113 21.164 21.879 21.229 21.58C21.71 19.513 21.918 16.783 22.009 15.548C22.516 15.392 22.984 15.184 23.413 14.937C23.764 14.716 24.089 14.469 24.388 14.196C24.635 13.949 24.869 13.676 25.064 13.377C25.246 13.104 25.389 12.831 25.493 12.571C25.87 11.687 25.87 10.972 25.87 10.894C25.87 10.751 25.831 10.621 25.766 10.504ZM23.881 11.895C23.816 12.051 23.725 12.233 23.608 12.402C23.478 12.597 23.335 12.766 23.166 12.922C22.971 13.117 22.75 13.273 22.516 13.429C22.074 13.676 21.554 13.884 20.969 14.014C20.579 14.105 20.306 14.43 20.293 14.833C20.28 14.859 20.124 18.2 19.617 20.709C15.353 22.061 10.647 22.061 6.37 20.709C5.876 18.2 5.707 14.859 5.707 14.833C5.707 14.43 5.408 14.105 5.031 14.014C2.366 13.416 1.95 11.687 1.898 11.102C3.432 8.242 5.629 6.318 6.825 5.408C7.241 5.096 7.761 4.901 8.307 4.849H8.437C9.009 6.838 10.842 8.268 13 8.268C15.158 8.268 16.991 6.838 17.563 4.836H17.693C18.239 4.901 18.759 5.096 19.175 5.408C20.371 6.318 22.568 8.242 24.102 11.102C24.076 11.271 24.024 11.557 23.881 11.895Z" fill="var(--fill-0, #CCCBCE)"/>
<path id="Vector_2" d="M6.89 9.867C6.448 11.063 6.448 12.298 6.448 12.311C6.448 12.792 6.045 13.182 5.564 13.182C5.083 13.182 4.693 12.792 4.693 12.298C4.693 12.246 4.693 10.764 5.226 9.269C5.395 8.814 5.902 8.58 6.357 8.736C6.812 8.905 7.046 9.412 6.89 9.867Z" fill="var(--fill-0, #CCCBCE)"/>
<path id="Vector_3" d="M21.333 12.09C21.333 12.584 20.943 12.974 20.462 12.974C19.981 12.974 19.578 12.584 19.578 12.09C19.578 12.09 19.565 10.855 19.136 9.659C18.98 9.204 19.214 8.697 19.669 8.528C20.124 8.372 20.631 8.606 20.787 9.061C21.333 10.556 21.333 12.038 21.333 12.09Z" fill="var(--fill-0, #CCCBCE)"/>
<path id="Vector_4" d="M19.175 5.408C18.759 5.096 18.239 4.901 17.693 4.849H17.563C16.991 6.838 15.158 8.268 13 8.268C10.842 8.268 9.009 6.838 8.437 4.836H8.307C7.761 4.901 7.241 5.096 6.825 5.408C5.629 6.318 3.432 8.242 1.898 11.102C1.95 11.687 2.366 13.416 5.031 14.014C5.408 14.105 5.694 14.43 5.707 14.833C5.707 14.859 5.876 18.2 6.37 20.709C10.647 22.061 15.353 22.061 19.617 20.709C20.124 18.2 20.28 14.859 20.293 14.833C20.306 14.43 20.579 14.105 20.969 14.014C21.554 13.884 22.074 13.676 22.516 13.429C22.75 13.273 22.971 13.117 23.166 12.922C23.335 12.766 23.478 12.597 23.608 12.402C23.725 12.233 23.816 12.051 23.881 11.895C24.024 11.557 24.076 11.271 24.102 11.102C22.568 8.242 20.371 6.318 19.175 5.408ZM6.89 9.867C6.448 11.063 6.448 12.298 6.448 12.311C6.448 12.792 6.045 13.182 5.564 13.182C5.083 13.182 4.693 12.792 4.693 12.298C4.693 12.246 4.693 10.764 5.226 9.269C5.395 8.814 5.902 8.58 6.357 8.736C6.812 8.905 7.046 9.412 6.89 9.867ZM20.462 12.974C19.968 12.974 19.578 12.584 19.578 12.09C19.578 12.09 19.565 10.855 19.136 9.659C18.98 9.204 19.214 8.697 19.669 8.528C20.124 8.372 20.631 8.606 20.787 9.061C21.333 10.556 21.333 12.038 21.333 12.09C21.333 12.584 20.943 12.974 20.462 12.974Z" fill="var(--fill-0, #E8E8E8)"/>
</g>
</svg>
